<svg xmlns="http://www.w3.org/2000/svg" width="1024" height="1024" viewBox="0 0 1024 1024">
<g>
<path d="M 510.81 752.13 C500.19,754.84 468.59,755.71 457.50,753.58 C450.31,752.21 439.89,749.10 439.00,748.08 C437.99,746.91 432.06,743.00 431.29,742.99 C430.86,742.99 429.16,742.29 427.52,741.44 C425.89,740.58 423.75,740.09 422.78,740.35 C419.25,741.27 403.51,729.57 390.23,716.16 C383.83,709.69 375.00,697.25 375.00,694.69 C375.00,692.15 367.97,678.00 366.71,678.00 C362.23,678.00 356.46,656.68 355.02,634.76 C353.76,615.63 354.54,611.21 360.26,605.19 C362.59,602.73 365.46,599.70 366.63,598.44 C368.97,595.92 377.54,593.00 382.56,593.00 C387.89,593.00 394.27,595.86 398.83,600.29 C405.86,607.13 406.32,608.58 407.11,626.50 C407.95,645.38 409.20,650.72 415.46,662.04 C424.98,679.24 434.29,688.41 449.71,695.72 C461.94,701.52 470.81,703.36 483.00,702.63 C504.34,701.35 521.93,692.28 535.50,675.56 C542.47,666.97 547.46,657.59 550.38,647.59 C552.40,640.69 552.46,637.81 553.02,537.50 C553.41,467.68 553.94,433.31 554.68,430.79 C555.28,428.75 557.28,425.58 559.14,423.75 C560.99,421.91 563.67,418.86 565.11,416.96 L 567.72 413.50 L 587.74 413.50 L 592.37 417.77 C594.92,420.12 598.10,422.55 599.45,423.16 C600.79,423.77 602.16,424.97 602.49,425.82 C602.81,426.68 603.34,435.28 603.65,444.94 C603.97,454.60 604.66,462.77 605.18,463.10 C606.43,463.89 605.34,636.61 604.02,647.50 C603.48,651.90 602.38,657.30 601.57,659.50 C600.75,661.70 600.07,664.17 600.05,665.00 C599.95,668.79 594.68,680.83 592.65,681.92 C591.45,682.56 589.26,685.43 587.78,688.29 C584.95,693.77 580.74,703.05 580.59,704.15 C580.46,705.11 566.77,721.00 566.07,721.00 C565.74,721.00 561.88,724.19 557.49,728.09 C550.98,733.86 546.68,736.55 534.31,742.59 C525.46,746.91 515.66,750.89 510.81,752.13 ZM 494.57 427.52 C488.92,429.21 482.00,429.48 482.00,428.00 C482.00,427.45 481.38,427.00 480.62,427.00 C479.86,427.00 478.68,426.33 478.00,425.50 C477.32,424.67 475.76,424.00 474.54,424.00 C473.33,424.00 470.51,422.31 468.27,420.25 C463.77,416.09 462.50,412.60 461.45,401.42 C460.91,395.73 461.11,393.68 462.50,391.01 C465.04,386.09 504.58,344.57 525.00,325.36 C528.58,322.00 538.03,312.61 546.00,304.49 C554.84,295.49 562.06,289.01 564.50,287.89 C570.88,284.95 582.22,285.31 588.95,288.66 C593.50,290.93 607.32,303.00 605.37,303.00 C605.00,303.00 607.24,305.67 610.35,308.93 C613.46,312.18 616.00,315.55 616.00,316.40 C616.00,317.25 617.27,318.60 618.82,319.41 C622.37,321.24 642.17,340.48 644.64,344.50 C645.65,346.15 646.83,347.95 647.25,348.50 C647.68,349.05 648.95,350.74 650.08,352.25 C651.22,353.76 652.94,355.00 653.92,355.00 C656.53,355.00 667.66,366.01 669.73,370.65 C671.66,374.95 677.82,381.00 680.28,381.00 C682.22,381.00 687.20,386.66 688.92,390.80 C689.65,392.56 690.64,394.00 691.12,394.00 C691.60,394.00 692.00,397.07 692.00,400.81 C692.00,411.64 685.99,421.34 676.11,426.44 C672.60,428.26 660.61,428.56 656.32,426.94 C652.28,425.42 647.20,420.24 644.44,414.84 C642.66,411.35 641.20,409.89 638.66,409.05 C634.84,407.79 621.00,394.13 621.00,391.62 C621.00,390.74 619.18,388.88 616.96,387.48 C614.74,386.07 612.50,383.82 611.99,382.46 C611.47,381.11 610.29,380.00 609.36,380.00 C607.58,380.00 585.41,357.63 584.50,354.90 C583.90,353.11 579.30,350.69 578.01,351.49 C577.55,351.78 577.00,351.49 576.78,350.85 C576.53,350.08 575.84,349.99 574.78,350.59 C571.66,352.34 552.00,370.17 552.00,371.25 C552.00,372.79 532.98,391.00 531.37,391.00 C530.63,391.00 528.96,392.69 527.65,394.75 C524.02,400.48 516.17,408.81 513.71,409.56 C510.52,410.53 507.87,413.22 503.42,420.03 C499.99,425.30 498.89,426.23 494.57,427.52 ZM 484.44 657.47 C483.37,658.28 482.27,658.89 482.00,658.84 C481.73,658.79 479.70,658.45 477.50,658.08 C467.51,656.40 458.02,647.22 455.94,637.21 C455.08,633.08 454.88,613.67 455.19,565.53 C455.68,490.49 455.21,494.61 464.25,486.32 C473.54,477.80 488.75,476.63 494.02,484.04 C495.19,485.67 496.61,487.00 497.20,487.00 C497.78,487.00 499.92,488.50 501.95,490.33 L 505.64 493.67 L 505.90 505.06 C506.04,511.33 506.34,516.75 506.57,517.11 C506.79,517.47 506.99,545.32 507.02,579.00 L 507.06 640.23 L 503.51 643.36 C501.56,645.09 497.72,648.64 494.99,651.25 C492.25,653.86 489.19,656.00 488.20,656.00 C487.20,656.00 485.51,656.66 484.44,657.47 Z" fill="rgb(115,180,72)"/>
<path d="M 494.57 427.52 C498.89,426.23 499.99,425.30 503.42,420.03 C507.87,413.22 510.52,410.53 513.71,409.56 C516.17,408.81 524.02,400.48 527.65,394.75 C528.96,392.69 530.63,391.00 531.37,391.00 C532.98,391.00 552.00,372.79 552.00,371.25 C552.00,370.17 571.66,352.34 574.78,350.59 C575.84,349.99 576.53,350.08 576.78,350.85 C577.00,351.49 577.55,351.78 578.01,351.49 C579.30,350.69 583.90,353.11 584.50,354.90 C585.41,357.63 607.58,380.00 609.36,380.00 C610.29,380.00 611.47,381.11 611.99,382.46 C612.50,383.82 614.74,386.07 616.96,387.48 C619.18,388.88 621.00,390.74 621.00,391.62 C621.00,394.13 634.84,407.79 638.66,409.05 C641.20,409.89 642.66,411.35 644.44,414.84 C645.72,417.35 647.50,419.81 649.45,421.87 C643.05,416.15 631.65,405.10 614.98,388.45 C591.77,365.28 577.75,352.00 576.50,352.00 C575.25,352.00 561.05,365.45 537.52,388.92 C502.24,424.09 500.24,425.91 495.07,427.42 C493.93,427.75 492.81,428.02 491.71,428.24 C492.67,428.04 493.64,427.80 494.57,427.52 ZM 507.06 639.55 L 507.02 579.00 C506.99,545.32 506.79,517.47 506.57,517.11 C506.34,516.75 506.04,511.33 505.90,505.06 L 505.64 493.67 L 501.95 490.33 C499.92,488.50 497.78,487.00 497.20,487.00 C496.61,487.00 495.19,485.67 494.02,484.04 C492.51,481.91 490.19,480.49 487.41,479.75 C495.19,481.21 502.30,486.02 506.13,493.72 L 508.50 498.50 L 508.80 562.94 C509.04,615.20 508.83,631.77 507.06,639.55 ZM 687.96 415.44 C690.57,411.10 692.00,406.09 692.00,400.81 C692.00,397.07 691.60,394.00 691.12,394.00 C690.64,394.00 689.65,392.56 688.92,390.80 C687.20,386.66 682.22,381.00 680.28,381.00 C677.82,381.00 671.66,374.95 669.73,370.65 C667.66,366.01 656.53,355.00 653.92,355.00 C652.94,355.00 651.22,353.76 650.08,352.25 C648.95,350.74 647.68,349.05 647.25,348.50 C646.83,347.95 645.65,346.15 644.64,344.50 C642.17,340.48 622.37,321.24 618.82,319.41 C617.27,318.60 616.00,317.25 616.00,316.40 C616.00,315.55 613.46,312.18 610.35,308.93 C607.24,305.67 605.00,303.00 605.37,303.00 C605.56,303.00 605.60,302.88 605.50,302.65 C613.57,310.37 624.80,321.65 641.25,338.16 C668.89,365.90 688.82,386.68 690.00,389.00 C692.97,394.83 692.78,406.00 689.60,412.61 C689.15,413.54 688.59,414.49 687.96,415.44 ZM 605.52 469.47 C605.43,465.47 605.32,463.19 605.18,463.10 C604.66,462.77 603.97,454.60 603.65,444.94 C603.34,435.28 602.81,426.68 602.49,425.82 C602.16,424.97 600.79,423.77 599.45,423.16 C598.10,422.55 594.92,420.12 592.37,417.77 L 587.74 413.50 L 569.94 413.50 C573.35,412.39 577.17,411.94 581.40,412.16 C588.03,412.49 589.37,412.92 594.31,416.33 C598.48,419.19 600.52,421.51 602.66,425.81 L 605.50 431.50 ZM 482.81 428.70 C476.50,427.99 470.98,424.92 466.19,419.48 C458.71,410.99 457.17,399.48 462.19,389.60 C463.70,386.64 490.48,359.04 512.88,337.12 C491.92,357.93 464.59,386.95 462.50,391.01 C461.11,393.68 460.91,395.73 461.45,401.42 C462.50,412.60 463.77,416.09 468.27,420.25 C470.51,422.31 473.33,424.00 474.54,424.00 C475.76,424.00 477.32,424.67 478.00,425.50 C478.68,426.33 479.86,427.00 480.62,427.00 C481.38,427.00 482.00,427.45 482.00,428.00 C482.00,428.31 482.30,428.54 482.81,428.70 ZM 484.44 657.47 C485.51,656.66 487.20,656.00 488.20,656.00 C489.19,656.00 492.25,653.86 494.99,651.25 C497.72,648.64 501.56,645.09 503.51,643.36 L 506.85 640.42 C506.45,641.92 505.98,643.08 505.42,644.15 C503.26,648.34 496.63,654.71 492.77,656.32 C489.64,657.62 486.39,658.26 483.18,658.33 C483.57,658.10 484.01,657.80 484.44,657.47 ZM 566.74 414.80 L 565.11 416.96 C563.67,418.86 560.99,421.91 559.14,423.75 C557.28,425.58 555.28,428.75 554.68,430.79 C553.94,433.31 553.41,467.68 553.02,537.50 C552.46,637.81 552.40,640.69 550.38,647.59 C549.81,649.56 549.15,651.50 548.42,653.42 C549.15,651.50 549.81,649.56 550.38,647.59 C552.40,640.68 552.46,637.88 552.97,535.00 L 553.50 429.50 L 556.20 424.91 C558.91,420.29 562.43,416.92 566.74,414.80 ZM 386.27 711.79 C382.21,707.41 378.74,703.28 376.74,700.32 C371.70,692.84 367.22,684.16 363.67,675.21 C364.71,677.00 365.74,678.00 366.71,678.00 C367.97,678.00 375.00,692.15 375.00,694.69 C375.00,696.75 380.71,705.20 386.27,711.79 ZM 574.07 712.32 C577.41,708.43 580.53,704.61 580.59,704.15 C580.74,703.05 584.95,693.77 587.78,688.29 C589.26,685.43 591.45,682.56 592.65,681.92 C593.83,681.29 596.10,676.96 597.82,672.70 C595.39,679.15 591.47,688.08 588.84,692.68 C585.75,698.09 579.95,705.68 574.07,712.32 ZM 354.84 616.21 C355.07,612.81 355.64,611.12 356.83,608.50 C359.81,601.97 363.36,598.29 369.50,595.38 C373.61,593.44 378.09,592.67 382.49,593.00 C377.46,593.03 368.96,595.94 366.63,598.44 C365.46,599.70 362.59,602.73 360.26,605.19 C357.15,608.46 355.50,611.26 354.84,616.21 ZM 440.76 748.98 C433.62,746.48 426.54,743.34 420.11,739.83 C421.29,740.31 422.20,740.50 422.78,740.35 C423.75,740.09 425.89,740.58 427.52,741.44 C429.16,742.29 430.86,742.99 431.29,742.99 C432.06,743.00 437.99,746.91 439.00,748.08 C439.19,748.30 439.82,748.61 440.76,748.98 ZM 604.47 637.63 C604.92,621.57 605.31,589.16 605.53,556.59 C605.46,598.65 605.18,622.95 604.47,637.63 ZM 358.31 658.73 C357.58,655.85 356.97,653.01 356.49,650.22 C355.95,647.07 355.43,641.57 355.10,635.99 C355.69,644.05 356.86,651.97 358.31,658.73 ZM 588.46 288.43 C585.64,287.12 582.10,286.31 578.48,286.02 C579.95,286.03 581.27,286.09 582.57,286.29 C584.45,286.58 586.28,287.19 588.46,288.43 ZM 466.67 653.26 C461.35,649.53 457.34,643.96 455.94,637.21 C457.22,643.40 461.35,649.28 466.67,653.26 ZM 411.42 734.55 C410.17,733.70 408.97,732.85 407.82,731.98 C405.13,729.95 401.90,727.18 398.54,724.06 C403.07,728.12 407.54,731.75 411.42,734.55 ZM 666.10 427.99 C670.22,427.91 674.30,427.38 676.11,426.44 C674.14,427.46 670.18,427.98 666.10,427.99 ZM 600.05 665.09 C600.05,665.06 600.05,665.03 600.05,665.00 C600.07,664.25 600.63,662.16 601.34,660.13 C600.69,662.29 600.19,664.20 600.05,665.09 ZM 559.14 726.63 C561.32,724.72 563.26,723.09 564.53,722.09 C564.07,722.50 563.62,722.89 563.18,723.25 C562.01,724.24 560.60,725.42 559.14,726.63 ZM 472.99 480.96 C469.85,482.16 466.83,483.95 464.27,486.30 C466.90,483.89 469.86,482.12 472.99,480.96 ZM 510.31 752.25 C505.82,753.34 497.81,754.11 489.21,754.49 C497.75,754.11 505.73,753.33 510.31,752.25 ZM 526.71 746.11 C521.97,748.21 517.41,750.04 513.79,751.23 C517.26,750.08 521.88,748.25 526.71,746.11 ZM 455.46 753.16 C453.82,752.81 452.16,752.42 450.49,751.98 C452.16,752.41 453.85,752.82 455.46,753.16 ZM 599.75 666.94 C599.86,666.46 599.94,666.03 599.99,665.64 C599.97,665.95 599.89,666.39 599.75,666.94 ZM 654.62 426.13 C654.84,426.25 655.06,426.37 655.27,426.48 L 655.22 426.45 C655.06,426.39 654.86,426.28 654.62,426.13 ZM 602.41 656.51 C602.54,655.99 602.66,655.44 602.78,654.86 C602.67,655.46 602.54,656.00 602.41,656.51 ZM 536.74 741.39 C535.94,741.79 535.13,742.19 534.31,742.59 C535.16,742.17 535.97,741.78 536.74,741.39 Z" fill="rgb(135,181,100)"/>
</g>
</svg>