<?xml version="1.0" encoding="UTF-8"?>
<svg version="1.1" xmlns="http://www.w3.org/2000/svg" width="1024" height="1024">
<path d="M0 0 C0.80056483 -0.00170885 1.60112967 -0.0034177 2.42595404 -0.00517833 C5.10532439 -0.00846948 7.78444366 0.00252428 10.46379089 0.01345825 C12.38568618 0.01402245 14.30758189 0.01370564 16.22947693 0.01257324 C21.44599436 0.01199905 26.66241995 0.02376414 31.87891603 0.03772116 C37.33084285 0.05021743 42.78277175 0.05139815 48.23471069 0.05377197 C58.55831897 0.05998998 68.88188492 0.07640516 79.20547456 0.09647095 C90.95868624 0.11881995 102.71189994 0.12982087 114.46512759 0.13986182 C138.64203297 0.16077109 162.81890077 0.19595332 186.99577332 0.24050903 C186.91125916 1.46302368 186.826745 2.68553833 186.7396698 3.94509888 C186.63585034 5.57219023 186.53243766 7.19930757 186.42936707 8.82644653 C186.37276917 9.6294519 186.31617126 10.43245728 186.25785828 11.25979614 C185.65277006 21.11695944 187.19928873 29.11755601 193.78874207 36.71707153 C194.99577332 38.24050903 194.99577332 38.24050903 194.99577332 40.24050903 C195.57585144 40.51765747 196.15592957 40.79480591 196.75358582 41.08035278 C199.58965957 42.54779861 202.16508473 44.32159799 204.80046082 46.11941528 C212.20322658 49.89983125 223.93824976 49.48142526 231.74577332 47.11550903 C233.18232506 46.53767816 234.59937297 45.90956473 235.99577332 45.24050903 C236.84010925 44.83832153 237.68444519 44.43613403 238.55436707 44.02175903 C248.15409361 38.88668986 252.02844665 30.99546518 255.99577332 21.24050903 C256.82853622 19.24027145 257.6619001 17.240284 258.49577332 15.24050903 C258.87733582 14.31238403 259.25889832 13.38425903 259.65202332 12.42800903 C260.76641618 9.7845655 261.91243262 7.16152455 263.07975769 4.54129028 C263.43888245 3.73473999 263.7980072 2.9281897 264.16801453 2.09719849 C264.44117493 1.48449097 264.71433533 0.87178345 264.99577332 0.24050903 C289.35243233 0.1236463 313.70904925 0.03550631 338.06593227 -0.01855183 C349.37556779 -0.04432045 360.68502899 -0.07944552 371.99455261 -0.13668823 C381.85329671 -0.18656405 391.71191454 -0.21879173 401.57078129 -0.22993344 C406.78980299 -0.23644507 412.0084635 -0.2517216 417.22736931 -0.28814125 C422.14315788 -0.32216657 427.05843766 -0.33253067 431.97433281 -0.32502937 C433.77503223 -0.32640099 435.57574927 -0.33629446 437.37634659 -0.35551834 C455.96976869 -0.54423373 455.96976869 -0.54423373 461.99577332 5.24050903 C462.32577332 6.23050903 462.65577332 7.22050903 462.99577332 8.24050903 C463.65577332 8.24050903 464.31577332 8.24050903 464.99577332 8.24050903 C465.64411986 9.51006203 466.28935147 10.7812061 466.93327332 12.05300903 C467.29292175 12.76070435 467.65257019 13.46839966 468.02311707 14.19754028 C471.33184089 21.14718912 471.01308513 30.58160968 469.38249207 38.04910278 C467.11165221 43.82123757 463.13537158 47.85260905 457.99577332 51.24050903 C453.79681349 52.87739168 450.44615921 53.30874323 445.99577332 53.24050903 C445.83141785 54.15316528 445.83141785 54.15316528 445.66374207 55.08425903 C445.31957002 56.98699878 444.97293255 58.88929322 444.62467957 60.79129028 C444.18852826 63.1833499 443.75931971 65.5766818 443.33561707 67.97097778 C442.02038454 75.30709335 440.48540037 82.52197546 438.61955261 89.7427063 C435.79645859 100.77311841 433.53070524 111.94402102 431.18717957 123.08425903 C429.73047213 129.99744685 428.14459847 136.87111169 426.49577332 143.74050903 C424.37465697 152.57862422 422.39804294 161.43514401 420.56364441 170.337677 C418.46883761 180.49760057 416.22148406 190.60124716 413.78141785 200.68411255 C412.29475698 206.86859883 411.01229744 213.06104016 409.80827332 219.30691528 C408.84390739 224.1300006 407.65780942 228.89951485 406.49577332 233.67800903 C404.6761111 241.17748744 403.11716975 248.66273655 401.73796082 256.25613403 C396.56130994 284.42278786 396.56130994 284.42278786 388.99577332 292.24050903 C388.33577332 292.24050903 387.67577332 292.24050903 386.99577332 292.24050903 C386.66577332 293.23050903 386.33577332 294.22050903 385.99577332 295.24050903 C378.93676576 300.4877334 371.71009342 300.95730018 363.20561218 300.87542725 C361.95047302 300.8832272 360.69533385 300.89102715 359.40216017 300.89906347 C355.94354533 300.91981088 352.48562606 300.90967789 349.02700973 300.89413238 C345.28730827 300.88277258 341.54772254 300.90030438 337.80804443 300.91403198 C330.49201965 300.93621983 323.17625191 300.93148318 315.86021721 300.91696878 C309.91229343 300.90565893 303.96444148 300.90415317 298.01651001 300.90958786 C297.16871624 300.91035403 296.32092246 300.91112019 295.44743797 300.91190957 C293.7249516 300.91350826 292.00246526 300.91512933 290.27997893 300.91677253 C274.14294799 300.93101698 258.00605925 300.91465781 241.86905164 300.8877707 C228.03443064 300.86543309 214.20001944 300.86931358 200.36540222 300.8923645 C184.28459042 300.91914558 168.20390314 300.92964381 152.12307215 300.91430318 C150.40706032 300.9127105 148.69104848 300.91113865 146.97503662 300.90958786 C145.70869934 300.90843079 145.70869934 300.90843079 144.41677949 300.90725035 C138.47867901 300.90294027 132.54065778 300.91020495 126.60256958 300.92198563 C119.3621222 300.93603485 112.12194571 300.93216001 104.88152921 300.90558191 C101.19003357 300.89247604 97.49898894 300.88723544 93.80749702 300.90382767 C89.79991995 300.92156766 85.79347332 300.90033175 81.78593445 300.87542725 C80.62736293 300.88658085 79.46879142 300.89773446 78.27511168 300.90922606 C68.89174008 300.79627054 61.75501959 298.34513918 55.12077332 291.55300903 C49.47632719 284.49560303 47.37326082 275.65697258 45.43327332 266.99050903 C45.2213031 266.0722937 45.00933289 265.15407837 44.79093933 264.20803833 C43.38138562 258.0662191 42.03393139 251.91119661 40.73796082 245.74441528 C39.87146437 241.65363997 38.96813359 237.57182009 38.05827332 233.49050903 C37.88860046 232.72939819 37.71892761 231.96828735 37.54411316 231.18411255 C37.19867375 229.63518052 36.85313297 228.08627111 36.50749207 226.53738403 C36.0121107 224.31384018 35.51908538 222.08978956 35.02702332 219.86550903 C33.60228507 213.42934942 32.17093014 206.99506432 30.70280457 200.56863403 C30.48164978 199.60022583 30.260495 198.63181763 30.03263855 197.63406372 C29.60502924 195.76463343 29.17623861 193.89547279 28.74601746 192.02664185 C27.78128991 187.81080206 26.85715758 183.59517683 26.03092957 179.34988403 C24.88242467 173.52042093 23.4690425 167.76111542 22.05827332 161.99050903 C19.65734417 152.07916663 17.42159614 142.15839013 15.36296082 132.17019653 C13.48373026 123.2060508 11.34478805 114.31357506 9.19010925 105.41213989 C7.62030947 98.90665892 6.13640172 92.4002582 4.78483582 85.84597778 C4.13482367 82.8758728 3.43650091 79.92979415 2.70671082 76.97879028 C2.47669373 76.04260864 2.24667664 75.106427 2.00968933 74.14187622 C1.5535562 72.29575158 1.09085293 70.4512336 0.62052917 68.6086731 C-0.59573465 63.67270408 -1.26014488 59.32428943 -1.00422668 54.24050903 C-1.70547668 54.15414185 -2.40672668 54.06777466 -3.12922668 53.97879028 C-10.40758704 52.90088094 -16.79682094 51.47281499 -21.4322052 45.35623169 C-24.97147373 39.36375424 -25.75152645 34.57553534 -25.56672668 27.67800903 C-25.57768372 26.78404419 -25.58864075 25.89007935 -25.59992981 24.96902466 C-25.52080509 17.75812549 -23.81965319 12.45334167 -19.03938293 6.99832153 C-18.38840637 6.45949341 -17.73742981 5.92066528 -17.06672668 5.36550903 C-16.41832825 4.81121216 -15.76992981 4.25691528 -15.10188293 3.68582153 C-10.23686578 0.33376129 -5.7808341 -0.04525481 0 0 Z M50.99577332 80.24050903 C47.53183126 84.93359181 47.54559178 89.61609562 47.99577332 95.24050903 C48.74441531 99.35363209 49.76293752 103.38139939 50.80827332 107.42800903 C51.36545573 109.66208688 51.92145574 111.89645996 52.47624207 114.13113403 C52.74227234 115.192677 53.00830261 116.25421997 53.28239441 117.34793091 C54.38867926 121.83364718 55.34256271 126.3425981 56.28483582 130.86550903 C57.1511876 134.97829991 58.0742094 139.07730705 58.99577332 143.17800903 C60.19886879 148.54040944 61.33506858 153.90515966 62.37077332 159.30300903 C63.93926807 167.30060867 65.87812904 175.2020796 67.80168152 183.12063599 C69.37711037 189.61811475 70.8561635 196.11705831 72.21842957 202.66238403 C73.44101211 208.28994992 74.80764911 213.88261693 76.15568542 219.48123169 C77.38233496 224.59683865 78.54559263 229.71595943 79.62077332 234.86550903 C80.07574366 236.9912316 80.53386819 239.11628256 80.99577332 241.24050903 C81.21749207 242.27046997 81.43921082 243.30043091 81.66764832 244.36160278 C83.33220405 251.32499427 85.32436213 254.91104559 91.51738262 258.84043789 C96.21208103 260.7300795 100.32251011 260.66570202 105.33752441 260.64164734 C106.37760672 260.64844401 107.41768903 260.65524068 108.48928899 260.66224331 C111.97372984 260.68123064 115.45781966 260.67877742 118.94230652 260.67630005 C121.4408768 260.68527659 123.93944291 260.69548459 126.43800354 260.70683289 C132.5202723 260.73059351 138.60240309 260.73999606 144.68470541 260.74167002 C149.63015015 260.74309691 154.57556617 260.7492682 159.52100182 260.7587719 C173.55104628 260.7851837 187.58102197 260.79903127 201.61109147 260.79678047 C202.74498188 260.79660067 202.74498188 260.79660067 203.90177917 260.79641724 C204.65863214 260.79629459 205.4154851 260.79617195 206.195273 260.79604559 C218.4591642 260.79482642 230.72277899 260.82353139 242.98659024 260.86583234 C255.58761163 260.90895246 268.18849828 260.92964132 280.78959531 260.92705101 C287.86072701 260.92605607 294.93156892 260.93425375 302.00263405 260.96658516 C308.65363478 260.99680168 315.30412865 260.99586529 321.95519638 260.97403526 C324.39445451 260.9708979 326.83375074 260.97798566 329.2729435 260.99611664 C332.60703796 261.01929192 335.93902189 261.00533819 339.27307129 260.98222351 C340.23495481 260.9976542 341.19683834 261.01308489 342.18786985 261.02898318 C349.13367953 260.92280183 353.80972133 258.90709456 358.99577332 254.24050903 C361.99231552 250.18295739 363.10065289 246.17513772 363.90983582 241.24050903 C364.98813804 235.06608579 366.43400398 229.01181711 367.93327332 222.92800903 C369.82024449 215.17077605 371.65702325 207.4188646 373.28874207 199.60379028 C374.13906733 195.55887289 375.03350285 191.52466869 375.93327332 187.49050903 C376.15201111 186.50933105 376.15201111 186.50933105 376.37516785 185.5083313 C376.70159293 184.04461074 377.02809847 182.58090813 377.35466003 181.11721802 C379.40999106 171.8948397 381.45870843 162.67098461 383.50003052 153.44549561 C384.16468992 150.44205915 384.83019378 147.43881006 385.49577332 144.43557739 C385.82948464 142.92882512 386.16281714 141.4219889 386.49577332 139.91506958 C388.47542161 130.95735436 390.4956211 122.0116085 392.61772156 113.08644104 C397.05308377 97.75976497 397.05308377 97.75976497 394.80827332 82.49050903 C392.35066797 79.4396886 390.72157046 78.62976945 386.99577332 77.24050903 C382.60841804 76.79423918 378.23798503 76.83611317 373.83123779 76.85955811 C372.47398516 76.8561 371.11673534 76.85133441 369.75949138 76.84537637 C366.03536737 76.83285742 362.31147412 76.83904077 358.5873493 76.84833503 C354.56886254 76.8551216 350.55041551 76.84464619 346.53193665 76.83639526 C338.66162857 76.82305118 330.79140629 76.82593878 322.92109484 76.83463319 C316.52445582 76.84140715 310.12784085 76.8423277 303.73119926 76.83906174 C302.82093942 76.83860204 301.91067957 76.83814234 300.97283609 76.83766871 C299.1236724 76.83670954 297.27450873 76.8357369 295.42534506 76.83475094 C278.0828739 76.82619494 260.7404503 76.83603421 243.39798694 76.85215203 C228.51804229 76.86555315 213.63816786 76.86322923 198.75822449 76.84939575 C181.47954224 76.83333975 164.20090169 76.82702131 146.92221302 76.83623254 C145.07952973 76.83718819 143.23684643 76.8381313 141.39416313 76.83906174 C140.48752576 76.83952456 139.5808884 76.83998739 138.64677717 76.84046424 C132.25849152 76.84305424 125.87023232 76.83868287 119.48195076 76.83162308 C111.69571429 76.82320757 103.90956854 76.8254892 96.12334246 76.84146531 C92.15083507 76.84934769 88.17847893 76.85244025 84.20597267 76.84251785 C80.56842528 76.83356956 76.93116914 76.83850583 73.29364812 76.85445051 C71.35653997 76.85938182 69.41941157 76.84960288 67.48232466 76.83927882 C61.25068164 76.88144152 56.42940876 77.04647919 50.99577332 80.24050903 Z " fill="#991CBC" transform="translate(281.0042266845703,431.7594909667969)"/>
<path d="M0 0 C6.10441509 3.47915324 9.34666242 7.18204295 12.3125 13.55859375 C14.42863928 22.90487556 12.75833485 30.22345788 9.0625 38.87109375 C8.43757965 40.38100506 7.81398942 41.89146725 7.19140625 43.40234375 C4.0421518 51.00013728 0.79320471 58.53906538 -2.66015625 66.00390625 C-4.65905485 70.49073063 -6.49009348 75.04536272 -8.34301758 79.59399414 C-10.40392579 84.63308689 -12.60240693 89.59077918 -14.890625 94.53125 C-16.10512678 97.24575212 -17.12349288 100.00139988 -18.1328125 102.796875 C-19.09194508 105.26920217 -20.19507679 107.65370468 -21.3125 110.05859375 C-23.71921765 115.25623397 -25.75798105 120.54851514 -27.7265625 125.92578125 C-28.9375 128.87109375 -28.9375 128.87109375 -30.44140625 131.375 C-32.10536302 134.15115765 -33.15264604 136.89041626 -34.25 139.93359375 C-42.39863458 161.41193506 -42.39863458 161.41193506 -51.7734375 166.95703125 C-58.05496248 169.75166889 -65.12679953 170.10477376 -71.65234375 167.9921875 C-78.45108598 164.89441472 -82.91525319 160.82366706 -86.3125 154.18359375 C-88.66318859 141.7249442 -85.12574013 132.97458855 -79.9375 121.87109375 C-79.62796387 121.20078125 -79.31842773 120.53046875 -78.99951172 119.83984375 C-77.82014864 117.28740579 -76.63468916 114.73818644 -75.43017578 112.19750977 C-73.14682264 107.37975082 -71.07174392 102.49709357 -69.046875 97.56640625 C-66.5571742 91.51748529 -63.83846252 85.6406296 -60.875 79.80859375 C-58.89540255 75.88899079 -57.15931879 72.03007473 -55.69921875 67.89453125 C-54.80411072 65.5167571 -53.75682148 63.23834491 -52.6875 60.93359375 C-50.45825282 56.112511 -48.43138383 51.22981755 -46.4375 46.30859375 C-44.21931155 40.84298219 -41.84547165 35.56179428 -39.1171875 30.328125 C-37.70218164 27.38097703 -36.57559161 24.37295844 -35.4375 21.30859375 C-31.65672814 11.38990214 -28.63607298 4.95648782 -18.9375 -0.12890625 C-12.87552683 -2.14956397 -5.99007492 -2.30203677 0 0 Z M-70.9375 139.87109375 C-72.17424251 143.50402489 -72.28208203 145.11301328 -70.6875 148.62109375 C-68.60357325 151.30042814 -66.94139807 152.68616516 -63.5625 153.30859375 C-59.71934213 152.66806744 -58.3293481 150.86090388 -55.9375 147.87109375 C-54.79287332 144.81875595 -54.81766741 143.33953023 -55.625 140.18359375 C-57.16120237 137.47695148 -57.99314643 136.79646201 -60.9375 135.87109375 C-65.55494259 135.16071797 -67.76672776 136.5241675 -70.9375 139.87109375 Z " fill="#9A1EBB" transform="translate(564.9375,302.12890625)"/>
<path d="M0 0 C1.051875 -0.00515625 2.10375 -0.0103125 3.1875 -0.015625 C6 0.25 6 0.25 9 2.25 C9 2.91 9 3.57 9 4.25 C9.99 4.58 10.98 4.91 12 5.25 C15.93819569 13.12639139 12.97535245 26.92027257 11.21020508 35.19433594 C9.97469503 41.02704224 9.29146064 46.85169428 8.73486328 52.78515625 C8.27027767 57.51627746 7.46607607 62.0918486 6.49731445 66.74511719 C5.71133053 70.70397582 5.16996241 74.68952596 4.625 78.6875 C4.36656578 80.53785557 4.10741543 82.38811122 3.84765625 84.23828125 C3.71117676 85.2123291 3.57469727 86.18637695 3.43408203 87.18994141 C2.50705153 93.72503719 1.5271627 100.25240401 0.55566406 106.78100586 C0.38647461 107.91803955 0.21728516 109.05507324 0.04296875 110.2265625 C-0.12799316 111.37543945 -0.29895508 112.52431641 -0.47509766 113.70800781 C-1.01235596 117.33337685 -1.5439838 120.959535 -2.07421875 124.5859375 C-2.25025635 125.78589355 -2.42629395 126.98584961 -2.60766602 128.22216797 C-2.94164042 130.49962437 -3.27425841 132.77728028 -3.60522461 135.05517578 C-4.05615759 138.12246687 -4.52278038 141.18669501 -5 144.25 C-5.15702393 145.27722168 -5.31404785 146.30444336 -5.47583008 147.36279297 C-5.63720459 148.34393066 -5.7985791 149.32506836 -5.96484375 150.3359375 C-6.17548462 151.64377197 -6.17548462 151.64377197 -6.39038086 152.97802734 C-7.32123279 156.44719358 -9.15677229 158.16958948 -12 160.25 C-17.17028115 161.97342705 -22.08909682 161.79082166 -27.3125 160.3125 C-31.22362818 157.31093651 -32.72393471 153.97989769 -34 149.25 C-34.1268028 144.96263657 -33.5690463 140.86009332 -32.9375 136.625 C-32.78482666 135.4707251 -32.63215332 134.3164502 -32.47485352 133.12719727 C-31.48945343 125.91629785 -30.22620222 118.81390402 -28.6796875 111.703125 C-27.94331307 107.96200435 -27.47000881 104.22485535 -27.0625 100.4375 C-26.24790501 92.88309061 -25.15983573 85.38391357 -24 77.875 C-23.8337915 76.79371826 -23.66758301 75.71243652 -23.49633789 74.59838867 C-22.70928584 69.54894456 -21.87647466 64.51570191 -20.9375 59.4921875 C-20.09309367 54.92299272 -19.48445999 50.36943608 -19 45.75 C-18.3791932 40.15350062 -17.59487493 34.65733361 -16.48828125 29.1328125 C-15.98493446 26.16105306 -15.69087508 23.1931805 -15.40258789 20.1940918 C-14.71586415 13.38843352 -13.90454688 7.40195725 -9 2.25 C-5.53767506 -0.05821663 -4.08201684 -0.02000989 0 0 Z " fill="#991BBB" transform="translate(603,519.75)"/>
<path d="M0 0 C0.96808594 -0.01417969 1.93617188 -0.02835938 2.93359375 -0.04296875 C5.5625 0.1875 5.5625 0.1875 8.5625 2.1875 C8.5625 2.8475 8.5625 3.5075 8.5625 4.1875 C9.5525 4.5175 10.5425 4.8475 11.5625 5.1875 C14.99624253 13.00641192 15.56353779 22.24250622 16.625 30.625 C16.94755224 33.10308207 17.27175383 35.58095005 17.59765625 38.05859375 C17.75637207 39.26628418 17.91508789 40.47397461 18.07861328 41.71826172 C18.51648266 44.85757751 19.01778964 47.9747104 19.55859375 51.09765625 C20.45174339 56.29741736 21.1129321 61.50829786 21.74436951 66.74562073 C22.80962382 75.42375857 24.20135827 84.05181192 25.5625 92.6875 C27.25165474 103.40424843 28.86711417 114.10723909 30.12060547 124.88476562 C30.49925813 127.71482815 31.01084227 130.41692325 31.6875 133.1875 C32.60657189 137.58111197 32.88115166 141.95986326 33 146.4375 C33.03432129 147.11167969 33.06864258 147.78585937 33.10400391 148.48046875 C33.13632183 152.21088048 32.57970031 154.66437305 30.3359375 157.57421875 C26.33194128 161.34699828 22.97304388 162.05573637 17.5625 162.1875 C14.46084096 161.7633415 12.03272464 161.13455479 9.5625 159.1875 C5.10252397 153.14120102 4.43326935 146.95473001 3.5 139.625 C3.3364502 138.43712891 3.17290039 137.24925781 3.00439453 136.02539062 C2.50984739 132.41447279 2.03478934 128.80138806 1.5625 125.1875 C1.15056806 122.12233716 0.73489873 119.05770364 0.31835938 115.99316406 C0.06643278 114.13730478 -0.18359802 112.28118707 -0.43164062 110.42480469 C-1.02091006 106.05086281 -1.66165682 101.70968914 -2.5 97.375 C-3.31298938 93.16464035 -3.84039055 88.94706591 -4.3125 84.6875 C-5.18688513 76.84987925 -6.286542 69.05152583 -7.4375 61.25 C-7.60362793 60.11304688 -7.76975586 58.97609375 -7.94091797 57.8046875 C-8.80773096 51.98843199 -9.80264234 46.23141056 -10.99121094 40.47290039 C-16.28328049 13.37275648 -16.28328049 13.37275648 -12.1640625 5.8671875 C-8.41587995 1.35108462 -5.88614923 0.03908466 0 0 Z " fill="#991DBB" transform="translate(403.4375,519.8125)"/>
<path d="M0 0 C3.2917472 2.43589292 4.7476827 4.62152405 7 8 C7.26006222 10.6509304 7.26006222 10.6509304 7.27415466 13.9078064 C7.28911736 15.75847466 7.28911736 15.75847466 7.30438232 17.64653015 C7.30527814 19.01614367 7.3059417 20.38575736 7.30639648 21.75537109 C7.31401693 23.19596283 7.32244423 24.6365505 7.33161926 26.07713318 C7.35358244 29.99246346 7.36236557 33.90771564 7.36744571 37.82310057 C7.37108711 40.26897453 7.37732602 42.71482797 7.3844471 45.16069412 C7.40894782 53.69275055 7.42199485 62.22474613 7.42553711 70.75683594 C7.429173 78.71119228 7.45907032 86.66516291 7.50094169 94.61940134 C7.53562568 101.44752241 7.55108522 108.27551554 7.55178314 115.10372412 C7.55257661 119.18239229 7.56134651 123.26066765 7.58978081 127.33924484 C7.61592954 131.17583008 7.61818525 135.01169598 7.60212517 138.84832954 C7.60030808 140.25562291 7.60702505 141.66295732 7.62294388 143.07016182 C7.75006667 155.03825209 7.75006667 155.03825209 4.60316467 158.28994751 C-0.52393033 161.65800243 -3.80736309 162.35228745 -9.8515625 161.46875 C-12.80571812 160.82420696 -14.69232747 159.96830892 -17 158 C-19.45964428 153.81999998 -20.37775349 150.73441171 -20.40113831 145.9034729 C-20.41393326 144.70356216 -20.42672821 143.50365143 -20.43991089 142.26737976 C-20.43855133 140.96436417 -20.43719177 139.66134857 -20.43579102 138.31884766 C-20.44477515 136.92208552 -20.45498491 135.52533082 -20.46632385 134.12858582 C-20.49276055 130.34542668 -20.49985458 126.56247127 -20.50177121 122.77922869 C-20.50390733 120.41287031 -20.51031892 118.04656333 -20.51826286 115.68021774 C-20.54599463 107.41698685 -20.55827102 99.15390089 -20.5559082 90.890625 C-20.5541061 83.20030719 -20.58576275 75.51062086 -20.63313919 67.82046282 C-20.6724233 61.20707799 -20.68845753 54.5938991 -20.68654197 47.98039854 C-20.68577873 44.03519486 -20.69423579 40.0905528 -20.72607613 36.14546585 C-20.75521924 32.43346141 -20.75529201 28.72255166 -20.73352623 25.01050758 C-20.72891684 23.00817662 -20.75386125 21.00584502 -20.77984619 19.00367737 C-20.70744528 12.06735754 -20.11417919 7.67515494 -15.48219204 2.35758018 C-11.34377015 -1.43291349 -5.24748427 -0.63754482 0 0 Z " fill="#981CBB" transform="translate(509,520)"/>
<path d="M0 0 C1.15378454 -0.00384115 2.30756908 -0.00768229 3.49631679 -0.01163983 C5.39872007 -0.01034011 5.39872007 -0.01034011 7.33955574 -0.00901413 C8.69991678 -0.01159803 10.06027707 -0.01461126 11.4206363 -0.01801753 C15.16253839 -0.02608764 18.9044213 -0.02787711 22.64633107 -0.028615 C26.68050161 -0.03046549 30.71466219 -0.03801274 34.74882698 -0.04475021 C43.5710243 -0.05833337 52.39321707 -0.06435801 61.21542311 -0.06876087 C66.72254184 -0.07152289 72.22965881 -0.07576013 77.73677635 -0.08026505 C92.98066981 -0.09245687 108.22456186 -0.10275689 123.46846008 -0.10614014 C124.44412194 -0.1063597 125.4197838 -0.10657927 126.42501117 -0.10680549 C127.89202269 -0.10713291 127.89202269 -0.10713291 129.3886708 -0.10746694 C131.37051892 -0.1079104 133.35236704 -0.10835697 135.33421516 -0.10880661 C136.31728217 -0.10902804 137.30034918 -0.10924947 138.31320609 -0.10947761 C154.24890723 -0.11342717 170.18456268 -0.13088641 186.12024616 -0.15416613 C202.47620307 -0.17786726 218.83213705 -0.19034139 235.18811142 -0.19150805 C244.37345373 -0.19242543 253.5587365 -0.19819348 262.74406242 -0.21632767 C270.56403415 -0.23171183 278.38392791 -0.23685904 286.20391189 -0.22858956 C290.19451685 -0.22467729 294.18496473 -0.22564073 298.17555046 -0.23964691 C301.82853172 -0.2523511 305.48123731 -0.25121921 309.13421799 -0.2390562 C311.08211257 -0.236163 313.03001176 -0.24806124 314.97786891 -0.26047826 C322.66414469 -0.21677562 327.30191893 0.462804 333.24583626 5.63142776 C336.59978399 9.96361025 335.79806669 14.93949189 335.37083626 20.13142776 C335.30316048 21.31672073 335.30316048 21.31672073 335.23411751 22.52595901 C334.86728501 27.18065581 333.75961572 31.18034526 332.19505501 35.56111526 C329.48474788 44.01316309 328.1366993 52.9233779 326.99583626 61.70564651 C326.30564634 64.38444613 325.48993303 65.40966164 323.37083626 67.13142776 C321.71707605 63.03943136 323.0632591 59.33493975 324.12083626 55.25642776 C324.50086646 53.72024705 324.8797577 52.18378415 325.25755501 50.64705276 C325.44753059 49.88328323 325.63750618 49.1195137 325.8332386 48.33259964 C326.86327757 44.11514672 327.75324819 39.86905958 328.64036751 35.61970901 C329.16123755 33.13234566 329.70028949 30.65347502 330.25755501 28.17439651 C330.545717 26.84766075 330.83348686 25.52083976 331.12083626 24.19392776 C331.38380501 23.00927933 331.64677376 21.82463089 331.91771126 20.60408401 C332.55698798 15.70479946 332.43669067 10.21923364 329.37083626 6.13142776 C323.50550883 2.01168225 317.11930117 2.71662605 310.18611336 2.75720596 C308.82672331 2.75446431 307.46733539 2.75041132 306.10795271 2.74516231 C302.37803006 2.73458228 298.64834728 2.74269991 294.9184351 2.75391281 C290.89387602 2.76275718 286.86934826 2.75431068 282.84478951 2.74805069 C274.9634511 2.73856255 267.08220425 2.74516238 259.20087264 2.75731363 C250.02586903 2.77093279 240.85088724 2.76929589 231.6758761 2.7671803 C215.30855234 2.76399048 198.94127211 2.77565841 182.57396126 2.79524612 C166.68495038 2.81425648 150.7959905 2.82133204 134.90696907 2.81575394 C117.60964144 2.8096994 100.31233624 2.80986676 83.01501048 2.82123977 C81.17153843 2.82244708 79.32806639 2.82365307 77.48459435 2.82485771 C76.57753484 2.82546125 75.67047534 2.82606479 74.73592918 2.82668662 C68.33722472 2.83056937 61.9385286 2.83017078 55.53982353 2.82827187 C47.74583034 2.82615222 39.95188186 2.83135667 32.15790127 2.84588542 C28.17972069 2.85314055 24.20160531 2.85719689 20.22341919 2.85264206 C16.58423247 2.84857662 12.9451806 2.85369967 9.30601437 2.86626814 C7.36072757 2.87059968 5.41542661 2.86509346 3.47014368 2.85927886 C1.74469196 2.86802715 1.74469196 2.86802715 -0.01561737 2.87695217 C-1.01026996 2.87781895 -2.00492255 2.87868573 -3.02971613 2.87957877 C-5.72757785 3.14096267 -7.27055639 3.86766487 -9.62916374 5.13142776 C-10.61916374 5.13142776 -11.60916374 5.13142776 -12.62916374 5.13142776 C-15.18236093 11.3548459 -15.50070399 17.13550818 -13.62916374 23.56892776 C-12.34121347 28.15725061 -12.45780258 32.39995568 -12.62916374 37.13142776 C-18.26971729 28.67059744 -18.69349129 17.75686314 -17.32056999 7.92049026 C-16.42813431 5.61124992 -15.35145768 4.82514763 -13.31666374 3.44392776 C-12.42527702 2.81937698 -12.42527702 2.81937698 -11.51588249 2.18220901 C-7.7764466 0.09958323 -4.22382472 0.00527718 0 0 Z " fill="#8908AC" transform="translate(344.62916374206543,506.8685722351074)"/>
<path d="M0 0 C0.66 0.33 1.32 0.66 2 1 C1.39254411 9.35251842 -1.05128278 16.8529922 -7 23 C-7.66 23 -8.32 23 -9 23 C-9.33 23.99 -9.66 24.98 -10 26 C-17.0605756 31.24906649 -24.29038221 31.71676248 -32.79689026 31.63491821 C-34.05273499 31.64271817 -35.30857972 31.65051812 -36.60248035 31.65855443 C-40.06302567 31.67930187 -43.52287582 31.66916888 -46.98342264 31.65362334 C-50.72514995 31.64226367 -54.46676159 31.65979521 -58.20846558 31.67352295 C-65.52816533 31.69571028 -72.84760816 31.69097457 -80.16731782 31.67645974 C-86.11763387 31.66515056 -92.06787811 31.66364385 -98.01820183 31.66907883 C-99.29032557 31.67022807 -99.29032557 31.67022807 -100.58814878 31.67140054 C-102.31120088 31.67299922 -104.03425296 31.67462029 -105.75730502 31.6762635 C-121.89907458 31.69050757 -138.04070196 31.67414892 -154.1824482 31.64726166 C-168.02364013 31.62492004 -181.86462239 31.62880792 -195.70581055 31.65185547 C-211.79283868 31.67863024 -227.87974236 31.68913865 -243.96678966 31.67379415 C-245.6830644 31.67220146 -247.39933916 31.6706296 -249.11561394 31.66907883 C-249.9599795 31.66830745 -250.80434507 31.66753607 -251.67429747 31.66674132 C-257.61587338 31.66242965 -263.55737014 31.66969927 -269.49893379 31.68147659 C-276.7419716 31.69551862 -283.98473858 31.69166587 -291.22774548 31.66507287 C-294.92114248 31.65195798 -298.61408839 31.64674199 -302.30748177 31.66331863 C-306.31540941 31.68103458 -310.32220422 31.65984186 -314.33009338 31.63491821 C-316.07231992 31.65164863 -316.07231992 31.65164863 -317.84974295 31.66871703 C-325.13751986 31.58082638 -330.01298928 30.21096008 -336 26 C-336 25.34 -336 24.68 -336 24 C-334.37433394 24.47690204 -332.74948689 24.95659666 -331.125 25.4375 C-330.22007812 25.70433594 -329.31515625 25.97117187 -328.3828125 26.24609375 C-326 27 -326 27 -324 28 C-322.3564721 28.09735151 -320.70900366 28.1309914 -319.06259823 28.13422108 C-318.01218096 28.13867892 -316.96176369 28.14313676 -315.87951559 28.14772969 C-314.13486315 28.14745315 -314.13486315 28.14745315 -312.35496521 28.14717102 C-311.12637364 28.15084771 -309.89778207 28.1545244 -308.63196045 28.1583125 C-305.21056594 28.16745202 -301.78921945 28.17205182 -298.36781728 28.17470181 C-294.68188502 28.17860035 -290.99596671 28.18817916 -287.31004333 28.19691467 C-278.40160031 28.21669434 -269.49315612 28.2267483 -260.58469662 28.23564246 C-256.39037237 28.24002389 -252.19604939 28.24539116 -248.00172615 28.25063133 C-234.05925858 28.26764696 -220.11679181 28.28214045 -206.17431545 28.28938007 C-202.55460547 28.29129001 -198.9348955 28.29321033 -195.31518555 28.29516602 C-193.96567475 28.29589163 -193.96567475 28.29589163 -192.58890111 28.2966319 C-178.01951837 28.30492956 -163.4502178 28.33026052 -148.88087093 28.36274669 C-133.92504838 28.39582279 -118.96926757 28.41382943 -104.01340824 28.41702431 C-95.61542326 28.41918917 -87.21755803 28.42793387 -78.81960869 28.45348549 C-71.66610228 28.47520022 -64.51274468 28.48323923 -57.35920905 28.47351871 C-53.71045872 28.46897587 -50.06201536 28.47085874 -46.41330719 28.49028015 C-42.45338447 28.51117555 -38.49388385 28.50092011 -34.53392029 28.48774719 C-32.81269043 28.50420106 -32.81269043 28.50420106 -31.05668825 28.52098733 C-22.8403528 28.45501431 -17.25083529 26.51185721 -10.25 22.375 C-4.47469139 16.27884091 -2.08461279 7.9655936 0 0 Z " fill="#8C0FAE" transform="translate(677,701)"/>
<path d="M0 0 C22.84390346 -0.07007235 45.68778921 -0.1229795 68.53177834 -0.15543652 C79.13857236 -0.17090724 89.74529961 -0.19200074 100.35205078 -0.22631836 C109.59659061 -0.25621436 118.84108209 -0.27557351 128.08566892 -0.28226548 C132.98088591 -0.28617739 137.87596457 -0.29537527 142.77113724 -0.31719017 C147.37904296 -0.33755844 151.9867534 -0.34383309 156.59469986 -0.33932304 C158.28537558 -0.34014809 159.97605786 -0.34611173 161.66669464 -0.35761642 C163.97697974 -0.3725661 166.28652978 -0.36894493 168.59683228 -0.36076355 C169.88918604 -0.36352893 171.1815398 -0.36629431 172.5130558 -0.36914349 C176.28936969 0.03063397 178.73942411 1.10139067 182 3 C182 3.66 182 4.32 182 5 C181.03966606 4.85825914 180.07933212 4.71651829 179.08989716 4.57048225 C169.08169101 3.16417226 159.31620698 2.72219882 149.22070312 2.77294922 C147.61245226 2.7735152 146.00420088 2.77319314 144.39595032 2.77206421 C140.08500501 2.77149698 135.77417398 2.7831476 131.46325493 2.79721212 C126.9376269 2.80982611 122.41199544 2.8108983 117.88635254 2.81326294 C109.34098757 2.81944667 100.79567457 2.83581485 92.25033236 2.85596192 C82.51133894 2.87841838 72.77234288 2.88933871 63.03332996 2.89935279 C43.02219111 2.9201843 23.01109885 2.95529898 3 3 C3 2.34 3 1.68 3 1 C2.01 0.67 1.02 0.34 0 0 Z " fill="#9117B0" transform="translate(558,432)"/>
<path d="M0 0 C1.03186447 3.09559341 1.11196339 5.17993103 1.08996582 8.42205811 C1.08559258 9.52928852 1.08121933 10.63651894 1.07671356 11.77730179 C1.06751137 12.97839962 1.05830917 14.17949745 1.04882812 15.41699219 C1.03884182 17.98286593 1.02983578 20.54874365 1.02172852 23.11462402 C1.01686432 24.42942245 1.01200012 25.74422089 1.00698853 27.09886169 C0.99634684 33.03926701 1.0400047 38.97880099 1.09179688 44.91894531 C1.10161339 46.08020809 1.1114299 47.24147087 1.12154388 48.43792343 C1.15296084 52.06800003 1.18582802 55.69806177 1.21875 59.328125 C1.24127631 61.91127431 1.26369434 64.49442456 1.28601074 67.07757568 C1.33824039 73.09382426 1.3915313 79.11006251 1.4453826 85.12629676 C1.50682333 91.99742352 1.56683804 98.86856253 1.62675762 105.7397027 C1.74963166 119.82648221 1.87421636 133.91324619 2 148 C1.34 148 0.68 148 0 148 C-2.0464107 144.61212662 -2.24739835 142.01706023 -2.24050903 138.09014893 C-2.24463303 136.2770649 -2.24463303 136.2770649 -2.24884033 134.42735291 C-2.24176259 133.09121605 -2.23449297 131.75508019 -2.22705078 130.41894531 C-2.22648653 129.00950631 -2.2268035 127.60006671 -2.22793579 126.19062805 C-2.22850976 122.3665552 -2.21674832 118.54260774 -2.20278788 114.71856403 C-2.19028789 110.72137907 -2.18911059 106.72419124 -2.18673706 102.72698975 C-2.18052014 95.15870301 -2.16410645 87.59047404 -2.14403808 80.02221274 C-2.12168568 71.40560523 -2.11068731 62.78899496 -2.10064721 54.17236567 C-2.07974041 36.44821103 -2.04456031 18.72411016 -2 1 C-1.34 0.67 -0.68 0.34 0 0 Z " fill="#8E0FB1" transform="translate(491,528)"/>
<path d="M0 0 C3.65316671 1.24976756 4.78065836 1.67098753 7 5 C7.26006222 7.6509304 7.26006222 7.6509304 7.27415466 10.9078064 C7.28911736 12.75847466 7.28911736 12.75847466 7.30438232 14.64653015 C7.30527814 16.01614367 7.3059417 17.38575736 7.30639648 18.75537109 C7.31401693 20.19596283 7.32244423 21.6365505 7.33161926 23.07713318 C7.35358244 26.99246346 7.36236557 30.90771564 7.36744571 34.82310057 C7.37108711 37.26897453 7.37732602 39.71482797 7.3844471 42.16069412 C7.40894782 50.69275055 7.42199485 59.22474613 7.42553711 67.75683594 C7.429173 75.71119228 7.45907032 83.66516291 7.50094169 91.61940134 C7.53562568 98.44752241 7.55108522 105.27551554 7.55178314 112.10372412 C7.55257661 116.18239229 7.56134651 120.26066765 7.58978081 124.33924484 C7.61592954 128.17583008 7.61818525 132.01169598 7.60212517 135.84832954 C7.60030808 137.25562291 7.60702505 138.66295732 7.62294388 140.07016182 C7.75005977 152.03760197 7.75005977 152.03760197 4.61488342 155.29385376 C-0.0915656 158.36469441 -3.35326719 159.26263874 -9 159 C-9 158.34 -9 157.68 -9 157 C-8.31292969 156.82984375 -7.62585938 156.6596875 -6.91796875 156.484375 C-6.01691406 156.24203125 -5.11585938 155.9996875 -4.1875 155.75 C-3.29417969 155.51796875 -2.40085937 155.2859375 -1.48046875 155.046875 C1.51621829 153.78213149 2.34756897 152.7803421 4 150 C4.45260541 147.20870019 4.45260541 147.20870019 4.38768005 144.09255981 C4.39758469 142.88409393 4.40748932 141.67562805 4.41769409 140.43054199 C4.41345609 139.09448141 4.40889823 137.7584218 4.40405273 136.42236328 C4.40975614 135.0128017 4.41672029 133.60324474 4.42485046 132.19369507 C4.44280247 128.3671383 4.44160948 124.54081059 4.43590808 120.71422434 C4.43281854 117.51844025 4.4389062 114.3227003 4.44494683 111.12692249 C4.45899773 103.58604252 4.45742667 96.04527583 4.44604492 88.50439453 C4.43456842 80.72900662 4.44863002 72.95396383 4.4754414 65.17862141 C4.49760767 58.4999213 4.50423354 51.82132945 4.49836498 45.14259517 C4.49499575 41.15509014 4.4974078 37.16780623 4.51461601 33.18033218 C4.53009756 29.42913811 4.52611672 25.67845442 4.50731087 21.92728043 C4.5018749 19.89835057 4.51613067 17.86939774 4.53100586 15.84051514 C4.49787957 7.11964883 4.49787957 7.11964883 0 0 Z " fill="#8E13B4" transform="translate(509,523)"/>
<path d="M0 0 C0.99 0 1.98 0 3 0 C2.10458098 7.46182517 0.26313155 12.76451247 -3.77734375 19.0078125 C-5.5359754 21.87331455 -6.7341961 24.88823207 -8 28 C-8.82978292 29.79331375 -9.66343097 31.58484187 -10.5 33.375 C-12.38543009 37.49690121 -13.98303163 41.6016849 -15.32421875 45.9296875 C-16.95714837 50.93230427 -19.26790835 55.40962801 -21.8125 60 C-25.52637747 66.80623856 -28.43053283 73.67454793 -31 81 C-31.66 81 -32.32 81 -33 81 C-31.51937006 71.66813496 -28.17275834 64.31343275 -23.9375 55.9375 C-21.95790255 52.01789704 -20.22181879 48.15898098 -18.76171875 44.0234375 C-17.86661072 41.64566335 -16.81932148 39.36725116 -15.75 37.0625 C-13.5207576 32.24142758 -11.49371846 27.35878559 -9.5 22.4375 C-7.21896333 16.81226307 -4.81010719 11.3401012 -1.9453125 5.98046875 C-0.99917058 3.99826233 -0.45287476 2.14392838 0 0 Z " fill="#8D0CB0" transform="translate(528,326)"/>
<path d="M0 0 C1.25082365 3.51844589 0.76461452 5.3599334 -0.6875 8.75 C-1.05746094 9.61882812 -1.42742187 10.48765625 -1.80859375 11.3828125 C-3.4444869 14.97641384 -5.18242476 18.49467632 -7 22 C-7.66 22 -8.32 22 -9 22 C-9.20496094 22.68707031 -9.40992188 23.37414062 -9.62109375 24.08203125 C-9.89050781 24.98308594 -10.15992188 25.88414062 -10.4375 26.8125 C-10.70433594 27.70582031 -10.97117187 28.59914063 -11.24609375 29.51953125 C-11.80387873 31.35473055 -12.39344575 33.18033726 -13 35 C-13.57785808 41.70315368 -12.14603714 46.10409337 -9 52 C-8.608125 52.78375 -8.21625 53.5675 -7.8125 54.375 C-2.90309327 58.77653707 3.81871515 59.33717005 10.15234375 59.203125 C12.09335433 59.09782031 12.09335433 59.09782031 14 58 C16.125 58.9375 16.125 58.9375 18 60 C14.95687505 63.04312495 12.07564042 63.22019187 7.9375 63.375 C0.88613666 63.2910552 -4.61672339 61.0120268 -9.88671875 56.3203125 C-15.28285396 50.44074629 -16.63893951 44.42086988 -16.51171875 36.54296875 C-15.4556495 29.23109998 -12.1356385 22.63086857 -9 16 C-8.44054687 14.80761719 -7.88109375 13.61523438 -7.3046875 12.38671875 C-5.1549984 7.96311229 -3.06291699 3.86468055 0 0 Z " fill="#8F0DB0" transform="translate(494,408)"/>
<path d="M0 0 C0.33 0 0.66 0 1 0 C1.37771911 6.44920409 0.69923683 11.81347531 -1.15234375 17.98828125 C-2.07440297 21.26435343 -2.73704547 24.53211825 -3.375 27.875 C-4.58498856 34.12873033 -5.99892804 40.310024 -7.5 46.5 C-9.27280104 53.82101169 -10.87838942 61.13895671 -12.30859375 68.53515625 C-13.40971551 74.05320709 -14.69848886 79.52626875 -16 85 C-16.66 85 -17.32 85 -18 85 C-18.33 85.99 -18.66 86.98 -19 88 C-19.29764925 79.93039814 -18.2276023 73.49674798 -15.58203125 65.921875 C-13.86599355 60.7905293 -12.65848944 55.59345444 -11.5 50.3125 C-11.28206787 49.33772705 -11.06413574 48.3629541 -10.83959961 47.35864258 C-9.71446048 42.3082879 -8.62431975 37.25156344 -7.5625 32.1875 C-5.28668308 21.40383263 -2.59970759 10.70913025 0 0 Z " fill="#8E0EB1" transform="translate(703,583)"/>
<path d="M0 0 C1.051875 -0.00515625 2.10375 -0.0103125 3.1875 -0.015625 C6 0.25 6 0.25 9 2.25 C9 2.91 9 3.57 9 4.25 C9.99 4.58 10.98 4.91 12 5.25 C13.63290425 8.51580849 13.19039754 12.10106384 13.1875 15.6875 C13.1884668 16.89962158 13.1884668 16.89962158 13.18945312 18.13623047 C13.13499999 24.33522461 12.48819903 30.21747893 11 36.25 C10.34 35.92 9.68 35.59 9 35.25 C9.14176421 32.54139876 9.28828216 29.83319248 9.4375 27.125 C9.47681641 26.36445312 9.51613281 25.60390625 9.55664062 24.8203125 C9.74613597 21.43854938 10.00268985 18.23557566 10.625 14.8984375 C11.13894826 11.26867791 9.77299485 9.37047093 8 6.25 C8 5.59 8 4.93 8 4.25 C4.84493858 3.31380187 2.03413498 3.1442877 -1.25 3.1875 C-2.58804688 3.20103516 -2.58804688 3.20103516 -3.953125 3.21484375 C-4.62859375 3.22644531 -5.3040625 3.23804688 -6 3.25 C-6.433125 4.178125 -6.433125 4.178125 -6.875 5.125 C-8 7.25 -8 7.25 -10 9.25 C-10.52198626 11.4550846 -10.52198626 11.4550846 -10.78125 14.00390625 C-10.96107422 15.40866211 -10.96107422 15.40866211 -11.14453125 16.84179688 C-11.38197124 18.82611679 -11.61894863 20.81049211 -11.85546875 22.79492188 C-11.97535156 23.73013672 -12.09523438 24.66535156 -12.21875 25.62890625 C-12.3724707 26.92163452 -12.3724707 26.92163452 -12.52929688 28.24047852 C-12.68462891 28.90362061 -12.83996094 29.5667627 -13 30.25 C-13.66 30.58 -14.32 30.91 -15 31.25 C-16.94804774 23.98011168 -15.73068875 14.41428522 -12.85546875 7.49609375 C-9.48569937 1.96804308 -6.63439726 -0.03252156 0 0 Z " fill="#9011B3" transform="translate(603,519.75)"/>
<path d="M0 0 C2.16214702 6.73819789 -2.85866381 13.91276191 -5.671875 19.98828125 C-7.56261217 24.27580584 -9.17853116 28.65545089 -10.7890625 33.0546875 C-12 36 -12 36 -13.5 38.49609375 C-15.18636963 41.3111014 -16.2559504 44.10448081 -17.375 47.1875 C-19.55570175 53.00712351 -22.08929766 58.51301643 -25 64 C-25.66 64 -26.32 64 -27 64 C-27.08226668 60.95613276 -26.97608217 58.92824652 -26 56 C-25.34 56 -24.68 56 -24 56 C-24 54.02 -24 52.04 -24 50 C-23.360625 49.773125 -22.72125 49.54625 -22.0625 49.3125 C-19.79758645 48.20608395 -19.79758645 48.20608395 -19.5 45.9375 C-19.335 44.968125 -19.17 43.99875 -19 43 C-18.38289263 41.54993606 -17.73363817 40.11336132 -17.0625 38.6875 C-15.6860436 35.706006 -14.62088066 32.88583628 -13.875 29.6875 C-13.1788169 26.7535855 -12.50064802 24.57253946 -11 22 C-10.34 22 -9.68 22 -9 22 C-8.62875 20.783125 -8.2575 19.56625 -7.875 18.3125 C-5.77975504 11.97615532 -2.87210465 6.01375958 0 0 Z " fill="#8D0FB3" transform="translate(548,395)"/>
<path d="M0 0 C1.21236328 0.01353516 1.21236328 0.01353516 2.44921875 0.02734375 C3.37154297 0.04474609 3.37154297 0.04474609 4.3125 0.0625 C4.20550781 1.22265625 4.09851563 2.3828125 3.98828125 3.578125 C3.07682255 14.77261513 2.39091565 25.25364399 9.5 34.6875 C10.02980469 35.29851562 10.55960937 35.90953125 11.10546875 36.5390625 C12.3125 38.0625 12.3125 38.0625 12.3125 40.0625 C12.89257812 40.33964844 13.47265625 40.61679687 14.0703125 40.90234375 C16.22749672 42.01851747 18.1740117 43.27054502 20.1875 44.625 C23.54411496 46.76217057 26.28453109 47.76040233 30.3125 48.0625 C30.3125 49.0525 30.3125 50.0425 30.3125 51.0625 C22.28504775 50.88411217 16.00731209 46.41708998 10.19140625 41.13671875 C4.12195083 34.62347519 0.19298449 26.57280194 0.1796875 17.5859375 C0.17839844 16.750625 0.17710937 15.9153125 0.17578125 15.0546875 C0.17964844 14.19101562 0.18351562 13.32734375 0.1875 12.4375 C0.18363281 11.56609375 0.17976563 10.6946875 0.17578125 9.796875 C0.17707031 8.96414063 0.17835938 8.13140625 0.1796875 7.2734375 C0.18081543 6.51337402 0.18194336 5.75331055 0.18310547 4.97021484 C0.3125 3.0625 0.3125 3.0625 1.3125 1.0625 C0.6525 1.0625 -0.0075 1.0625 -0.6875 1.0625 C-1.0175 1.7225 -1.3475 2.3825 -1.6875 3.0625 C-3.9975 3.0625 -6.3075 3.0625 -8.6875 3.0625 C-6.88341097 -0.54567807 -3.60175697 -0.05219938 0 0 Z " fill="#8D11B2" transform="translate(463.6875,431.9375)"/>
<path d="M0 0 C3.15535324 0.23372987 4.3128334 1.2701743 6.75 3.375 C10.20215999 7.79079974 9.43780245 12.6795872 9 18 C8.95488281 18.79019531 8.90976562 19.58039062 8.86328125 20.39453125 C8.49644875 25.04922805 7.38877946 29.0489175 5.82421875 33.4296875 C3.11391162 41.88173532 1.76586304 50.79195014 0.625 59.57421875 C-0.06518992 62.25301837 -0.88090323 63.27823387 -3 65 C-4.65376021 60.9080036 -3.30757715 57.20351198 -2.25 53.125 C-1.8699698 51.58881928 -1.49107856 50.05235638 -1.11328125 48.515625 C-0.92330566 47.75185547 -0.73333008 46.98808594 -0.53759766 46.20117188 C0.49244131 41.98371895 1.38241193 37.73763181 2.26953125 33.48828125 C2.79040129 31.00091789 3.32945323 28.52204725 3.88671875 26.04296875 C4.17488074 24.71623299 4.4626506 23.38941199 4.75 22.0625 C5.01296875 20.87785156 5.2759375 19.69320312 5.546875 18.47265625 C6.21613384 13.34359493 5.84422932 8.42435672 3 4 C2.01904252 2.98131338 1.02297922 1.97648017 0 1 C0 0.67 0 0.34 0 0 Z " fill="#8F0AB1" transform="translate(671,509)"/>
<path d="M0 0 C0.33 0.99 0.66 1.98 1 3 C1.66 3 2.32 3 3 3 C3.23074219 4.05574219 3.46148437 5.11148438 3.69921875 6.19921875 C5.7734195 15.63623829 7.9488011 25.04361599 10.20922852 34.43774414 C11.41891011 39.48768475 12.56279887 44.54200611 13.625 49.625 C15.69280217 60.69869945 15.69280217 60.69869945 20 71 C20.66 71.33 21.32 71.66 22 72 C19 72 19 72 17.43139648 70.74487305 C10.59676305 62.41345139 9.59383304 48.92486574 7.4375 38.6875 C6.85656799 35.97075293 6.27317009 33.25454327 5.68960571 30.5383606 C5.31342033 28.78376444 4.93902316 27.02878385 4.5664978 25.27340698 C3.30851409 19.35797389 1.95520221 13.47521431 0.50024414 7.60473633 C0.00047465 5.00247146 -0.09370542 2.64261268 0 0 Z " fill="#8D0DB1" transform="translate(348,617)"/>
<path d="M0 0 C0.33 0 0.66 0 1 0 C1.15433627 6.41781659 0.62957462 12.31566431 -0.5 18.625 C-2.56478089 28.36324797 -2.56478089 28.36324797 -0.6875 37.8125 C1.25779962 40.33418469 2.88849769 41.80226082 6.0859375 42.37109375 C10.3544655 42.49492477 12.38029674 42.44829598 15.9375 39.875 C18.04123708 36.94251801 19.10932832 34.48171656 20 31 C20.66 31.33 21.32 31.66 22 32 C21.7464147 36.31095008 21.4154009 38.49714628 18.625 41.875 C14.05875886 45.57148093 9.6346888 45.49207043 4 45 C-0.30760286 43.78086712 -2.33704044 42.06571935 -4.5 38.25 C-7.82290977 29.88780145 -4.72608009 20.14578694 -2 12 C-1.5827591 9.88288875 -1.20667429 7.75719187 -0.875 5.625 C-0.62363281 4.03558594 -0.62363281 4.03558594 -0.3671875 2.4140625 C-0.24601563 1.61742187 -0.12484375 0.82078125 0 0 Z " fill="#8E0EB2" transform="translate(575,636)"/>
<path d="M0 0 C2.95823899 2.95823899 3.19371433 6.59324871 4.0234375 10.56640625 C4.21088531 11.43329575 4.39833313 12.30018524 4.59146118 13.19334412 C5.19299557 15.98160814 5.78436309 18.77190923 6.375 21.5625 C6.95839888 24.28930832 7.54393831 27.01564655 8.13043213 29.74179077 C8.51707236 31.5398447 8.90228851 33.33820545 9.28607178 35.13687134 C10.68401277 41.65435939 12.1842254 48.14296587 13.81307983 54.60682678 C14.67894757 58.14644888 15.19178997 61.35380116 15 65 C14.01 65.495 14.01 65.495 13 66 C6.88973519 40.82962239 6.88973519 40.82962239 4.71875 30.4140625 C3.64371691 25.30765531 2.49781673 20.21728194 1.35693359 15.12524414 C0.90086567 13.08430606 0.4498392 11.04231808 0 9 C-0.21269531 8.04867187 -0.42539062 7.09734375 -0.64453125 6.1171875 C-1.03869835 3.76951095 -0.74713422 2.24140267 0 0 Z " fill="#8C0BAE" transform="translate(313,629)"/>
<path d="M0 0 C0.99 0.33 1.98 0.66 3 1 C2.68546875 2.18851563 2.3709375 3.37703125 2.046875 4.6015625 C-0.34576081 13.81297532 -2.44938568 22.99346672 -4.0625 32.375 C-5.50997096 40.79100972 -7.39040968 48.86585144 -10 57 C-10.33 57 -10.66 57 -11 57 C-11.3554138 50.19448388 -10.8221078 44.44124917 -8.8515625 37.921875 C-7.60216229 33.63494216 -6.7395428 29.28243443 -5.82421875 24.9140625 C-4.86818521 20.37403594 -3.87708602 15.84254634 -2.875 11.3125 C-2.70427979 10.53382568 -2.53355957 9.75515137 -2.35766602 8.95288086 C-1.68447381 5.91329574 -0.98526887 2.9558066 0 0 Z " fill="#8E08B0" transform="translate(663,589)"/>
<path d="M0 0 C2.59501077 2.59501077 2.77371879 4.55266174 3.5859375 8.125 C3.87525146 9.38127197 4.16456543 10.63754395 4.46264648 11.93188477 C4.76706968 13.28785466 5.07118188 14.64389441 5.375 16 C5.6870534 17.37113264 5.999636 18.74214494 6.31274414 20.11303711 C6.93125886 22.82687394 7.54536581 25.54165016 8.15576172 28.25732422 C8.87513746 31.44645957 9.60693898 34.63217998 10.34765625 37.81640625 C10.71139945 39.39833135 11.07472545 40.98035248 11.4375 42.5625 C11.6010498 43.26181641 11.76459961 43.96113281 11.93310547 44.68164062 C12.72092056 48.18421205 13.17234216 51.40838931 13 55 C12.34 55 11.68 55 11 55 C8.62213195 46.73648693 6.75069691 38.41611068 5 30 C4.50159562 27.66632532 4.00160563 25.33298869 3.5 23 C3.25765625 21.86046875 3.0153125 20.7209375 2.765625 19.546875 C2.22734855 17.05322697 1.67650022 14.56512865 1.109375 12.078125 C0.82578125 10.81484375 0.5421875 9.5515625 0.25 8.25 C-0.14445312 6.52523437 -0.14445312 6.52523437 -0.546875 4.765625 C-1 2 -1 2 0 0 Z " fill="#8C0CAE" transform="translate(292,537)"/>
<path d="M0 0 C15.18 0 30.36 0 46 0 C46 0.66 46 1.32 46 2 C39.96134674 3.07353836 34.12147184 3.07532899 28 3 C15.9751235 2.91774027 4.00608826 3.36310818 -8 4 C-6 2 -6 2 -2.875 1.875 C-1.92625 1.91625 -0.9775 1.9575 0 2 C0 1.34 0 0.68 0 0 Z " fill="#921FB3" transform="translate(278,432)"/>
<path d="M0 0 C0.33 1.32 0.66 2.64 1 4 C1.66 4 2.32 4 3 4 C3.11593506 4.78648926 3.23187012 5.57297852 3.35131836 6.38330078 C3.87946846 9.96395259 4.40847593 13.54447722 4.9375 17.125 C5.11990234 18.3625 5.30230469 19.6 5.49023438 20.875 C5.66748047 22.07382812 5.84472656 23.27265625 6.02734375 24.5078125 C6.18968506 25.60754395 6.35202637 26.70727539 6.51928711 27.84033203 C6.84055858 29.95201074 7.18585685 32.06016937 7.5546875 34.1640625 C8.11675789 37.74356338 8.1079919 41.2636431 8.0625 44.875 C8.05798828 45.56335938 8.05347656 46.25171875 8.04882812 46.9609375 C8.03716336 48.64066335 8.01923271 50.32034375 8 52 C6.5361953 49.31229713 5.68362038 47.03418142 5.25390625 44.0078125 C5.14022705 43.23066895 5.02654785 42.45352539 4.90942383 41.65283203 C4.79493896 40.81864746 4.6804541 39.98446289 4.5625 39.125 C4.43834717 38.25601074 4.31419434 37.38702148 4.1862793 36.49169922 C3.92228175 34.63295784 3.66172942 32.77372448 3.40429688 30.9140625 C2.99186974 27.94139925 2.56693982 24.97070059 2.140625 22 C1.86388642 20.04176503 1.58782753 18.08343386 1.3125 16.125 C1.11539429 14.74465576 1.11539429 14.74465576 0.91430664 13.33642578 C0.29709697 8.85222549 -0.15733445 4.5402228 0 0 Z " fill="#9014B2" transform="translate(416,540)"/>
<path d="M0 0 C1.3485444 3.0130335 0.91764662 4.24594348 -0.15234375 7.44140625 C-0.7359928 8.81998767 -1.33189736 10.1934206 -1.9375 11.5625 C-2.25162842 12.29758789 -2.56575684 13.03267578 -2.8894043 13.79003906 C-3.56410893 15.36794255 -4.24339153 16.94389478 -4.92675781 18.51806641 C-6.39538807 21.91435741 -7.82641775 25.32602383 -9.25805664 28.73803711 C-10.56719709 31.85675581 -11.88269626 34.97272582 -13.20947266 38.08398438 C-13.87465747 39.69620502 -14.46758758 41.33796595 -15.04296875 42.984375 C-15.35878906 43.64953125 -15.67460938 44.3146875 -16 45 C-17.485 45.495 -17.485 45.495 -19 46 C-18.4440153 41.69111861 -16.7803925 38.18000181 -14.98046875 34.28125 C-14.10092306 32.23481701 -13.4441505 30.27411227 -12.875 28.125 C-12 25 -12 25 -10 22 C-9.33166272 20.00055765 -8.66519914 18.00048858 -8 16 C-7.03602655 13.94107845 -6.0352934 11.8989986 -5 9.875 C-4.484375 8.86179687 -3.96875 7.84859375 -3.4375 6.8046875 C-2.963125 5.87914062 -2.48875 4.95359375 -2 4 C-1.3315749 2.66754733 -0.66411117 1.33460802 0 0 Z " fill="#8B09B3" transform="translate(568,348)"/>
<path d="M0 0 C3 2 3 2 3.58422852 3.8215332 C3.68147217 4.55718506 3.77871582 5.29283691 3.87890625 6.05078125 C4.05232544 7.30242065 4.05232544 7.30242065 4.22924805 8.5793457 C4.33922119 9.48128662 4.44919434 10.38322754 4.5625 11.3125 C4.68471924 12.23571045 4.80693848 13.1589209 4.93286133 14.11010742 C6.21135803 24.04678864 7.14049219 34.01959757 8 44 C7.01 44.495 7.01 44.495 6 45 C4.39734091 36.59305008 3.08711715 28.15885205 1.875 19.6875 C1.69324219 18.45193359 1.51148438 17.21636719 1.32421875 15.94335938 C1.15277344 14.74904297 0.98132813 13.55472656 0.8046875 12.32421875 C0.64983887 11.25260498 0.49499023 10.18099121 0.33544922 9.0769043 C0.00263236 6.02414529 -0.05923999 3.06811403 0 0 Z " fill="#8D0EB0" transform="translate(425,602)"/>
<path d="M0 0 C3.78421624 3.09617692 4.75223747 6.68138643 5.26171875 11.44921875 C5.56220466 18.71268849 3.82812575 24.37351558 1 31 C0.53207031 32.36511719 0.53207031 32.36511719 0.0546875 33.7578125 C-0.29335938 34.49773437 -0.64140625 35.23765625 -1 36 C-2.485 36.495 -2.485 36.495 -4 37 C-4 35.02 -4 33.04 -4 31 C-3.34 31 -2.68 31 -2 31 C-2 29.68 -2 28.36 -2 27 C-1.34 27 -0.68 27 0 27 C0 25.35 0 23.7 0 22 C0.66 22 1.32 22 2 22 C2.054348 19.9377952 2.09294961 17.87517184 2.125 15.8125 C2.14820313 14.66394531 2.17140625 13.51539063 2.1953125 12.33203125 C2.00258798 9.04415093 1.27632206 6.98980955 0 4 C0 2.68 0 1.36 0 0 Z " fill="#8E0FB3" transform="translate(573,310)"/>
<path d="M0 0 C0.66 0 1.32 0 2 0 C2.391875 1.0725 2.78375 2.145 3.1875 3.25 C5.14551523 7.80031707 7.96857683 9.98428842 12.375 12.1875 C15.55892561 13.17300078 18.69464781 13.61113504 22 14 C22 14.66 22 15.32 22 16 C22.66 16 23.32 16 24 16 C26.29612756 25.41002278 26.29612756 25.41002278 26 30 C25.71125 29.38125 25.4225 28.7625 25.125 28.125 C24.06279958 25.86674235 24.06279958 25.86674235 22 24 C21.875 20.375 21.875 20.375 22 17 C21.29875 16.91363281 20.5975 16.82726562 19.875 16.73828125 C12.65134237 15.66847326 6.30925742 14.15942576 1.5859375 8.22265625 C0.4375 6.375 0.4375 6.375 -1 3 C-0.67 2.01 -0.34 1.02 0 0 Z " fill="#8E07B2" transform="translate(258,469)"/>
<path d="M0 0 C0.33 0 0.66 0 1 0 C0.68672453 7.49700609 0.18425262 14.40968959 -2.234375 21.53515625 C-3.5988757 25.92801308 -4.26730334 30.46590066 -5 35 C-5.66 35 -6.32 35 -7 35 C-7.33 35.66 -7.66 36.32 -8 37 C-7.25977682 30.6023568 -6.25124581 24.27800602 -5.125 17.9375 C-4.96386719 16.98294922 -4.80273438 16.02839844 -4.63671875 15.04492188 C-3.67184697 9.62593271 -2.40592085 4.95619696 0 0 Z " fill="#8E0DB1" transform="translate(712,544)"/>
<path d="M0 0 C0.33 0 0.66 0 1 0 C2.54310476 7.71552382 1.24273082 14.28111253 -0.2421875 21.875 C-1.0351686 25.97675567 -1.42190289 30.04039094 -1.59375 34.21484375 C-2 36 -2 36 -5 38 C-4.65984792 25.02319801 -2.68875876 12.6889234 0 0 Z " fill="#8C0BB0" transform="translate(602,617)"/>
<path d="M0 0 C0.99 0.495 0.99 0.495 2 1 C2.5625 3.34375 2.5625 3.34375 3 6.5 C3.16242188 7.66789063 3.32484375 8.83578125 3.4921875 10.0390625 C3.65976562 11.34617187 3.82734375 12.65328125 4 14 C4.13970215 15.07266113 4.13970215 15.07266113 4.28222656 16.16699219 C4.57078702 18.40211301 4.85005979 20.63816497 5.125 22.875 C5.21265625 23.57560547 5.3003125 24.27621094 5.390625 24.99804688 C5.90601173 29.37467771 6.08033726 33.6044043 6 38 C3.18535144 35.63704983 2.53320576 33.96285451 2.05078125 30.3515625 C1.92485596 29.43391113 1.79893066 28.51625977 1.66918945 27.57080078 C1.55148193 26.59868652 1.43377441 25.62657227 1.3125 24.625 C1.18512451 23.63870605 1.05774902 22.65241211 0.92651367 21.63623047 C0.04046488 14.38263456 -0.37233446 7.30878745 0 0 Z " fill="#910CB2" transform="translate(390,528)"/>
<path d="M0 0 C0.33 0 0.66 0 1 0 C1.38127176 6.50986235 0.68014751 11.93701063 -1.19921875 18.171875 C-2.48544455 22.71444808 -3.23480135 27.34579176 -4 32 C-4.66 32 -5.32 32 -6 32 C-6.33 32.66 -6.66 33.32 -7 34 C-6.91218733 31.47765681 -6.80521993 28.9584835 -6.6875 26.4375 C-6.66494141 25.73302734 -6.64238281 25.02855469 -6.61914062 24.30273438 C-6.3645998 19.28133814 -5.15230879 15.60594081 -3 11 C-2.39577772 9.03316946 -1.82886688 7.05420083 -1.3125 5.0625 C-1.06113281 4.10472656 -0.80976562 3.14695312 -0.55078125 2.16015625 C-0.36902344 1.44730469 -0.18726563 0.73445313 0 0 Z " fill="#930EB6" transform="translate(723,493)"/>
<path d="M0 0 C0.70589396 7.33467943 -3.45655673 11.9812922 -7.73779297 17.48925781 C-10.46149092 20.74926612 -13.60967322 23.4595644 -17 26 C-18.32 25.34 -19.64 24.68 -21 24 C-20.49210938 23.74347656 -19.98421875 23.48695313 -19.4609375 23.22265625 C-12.27265789 19.22468051 -8.4094842 13.65993064 -5.3125 6.125 C-2.74 0 -2.74 0 0 0 Z " fill="#910EB6" transform="translate(540,452)"/>
<path d="M0 0 C-0.42396648 5.96900179 -1.04774483 11.70225121 -2.45703125 17.51953125 C-3.57553433 22.62923956 -4.24825813 27.82577672 -5 33 C-5.33 33 -5.66 33 -6 33 C-7.09547128 28.06649459 -6.84487644 23.64650082 -6.1875 18.6875 C-6.04538086 17.56408203 -6.04538086 17.56408203 -5.90039062 16.41796875 C-5.21570602 11.1944147 -4.44969135 6.07391973 -3 1 C-1 0 -1 0 0 0 Z " fill="#8A05AF" transform="translate(582,601)"/>
<path d="M0 0 C1.94378558 3.3545813 2.52505208 6.41251887 3.0703125 10.234375 C3.33134766 12.05582031 3.33134766 12.05582031 3.59765625 13.9140625 C3.77167969 15.17992187 3.94570313 16.44578125 4.125 17.75 C4.39763672 19.62558594 4.39763672 19.62558594 4.67578125 21.5390625 C5.54885589 27.74905201 6.23635804 33.72863326 6 40 C5.67 40 5.34 40 5 40 C4.17755754 36.06451086 3.36892111 32.12630061 2.5625 28.1875 C2.33240234 27.08728516 2.10230469 25.98707031 1.86523438 24.85351562 C-1.91711632 6.27066221 -1.91711632 6.27066221 0 0 Z " fill="#8F0EB3" transform="translate(396,568)"/>
<path d="M0 0 C0.99 0.66 1.98 1.32 3 2 C3 2.66 3 3.32 3 4 C3.99 4.33 4.98 4.66 6 5 C7.38226016 7.76452033 7.09525387 10.0461363 7.0625 13.125 C7.05347656 14.22070312 7.04445313 15.31640625 7.03515625 16.4453125 C7.02355469 17.28835938 7.01195312 18.13140625 7 19 C6.67 19 6.34 19 6 19 C5.87882812 18.32453125 5.75765625 17.6490625 5.6328125 16.953125 C5.46523438 16.06109375 5.29765625 15.1690625 5.125 14.25 C4.88136719 12.92742188 4.88136719 12.92742188 4.6328125 11.578125 C4.02424247 9.09876563 3.32579887 7.17566995 2 5 C-1.95410813 2.74050964 -5.51667674 2.45890926 -10 3 C-12.59924233 4.45415701 -14.67632809 6.10312497 -17 8 C-16.42350077 5.1998609 -16.01169653 4.01403584 -14.125 1.75 C-9.574374 -0.79835056 -5.11756871 -0.68128624 0 0 Z " fill="#8C0AAE" transform="translate(409,520)"/>
<path d="M0 0 C-2.2048092 2.2048092 -3.31124845 2.49784608 -6.25 3.3125 C-11.56691101 5.04497662 -15.50369531 7.22647573 -18.25390625 12.32421875 C-19.24677956 14.52791318 -20.16070296 16.73389799 -21 19 C-21.99 18.67 -22.98 18.34 -24 18 C-20.53874651 9.61155036 -17.34032775 4.01924366 -9 0 C-5.52176885 -1.15941038 -3.54104422 -0.70820884 0 0 Z " fill="#8D12B0" transform="translate(555,302)"/>
<path d="M0 0 C0.33 0 0.66 0 1 0 C1.71907047 4.42802066 2.43088791 8.85713048 3.13623047 13.28735352 C3.37678983 14.79189895 3.61927128 16.29613846 3.86376953 17.80004883 C4.2164213 19.97137614 4.56196963 22.1437378 4.90625 24.31640625 C5.0156189 24.98023819 5.12498779 25.64407013 5.2376709 26.32801819 C5.9040337 30.5892206 6.09754979 34.69073797 6 39 C5.67 39 5.34 39 5 39 C4.34 36.03 3.68 33.06 3 30 C2.67 30 2.34 30 2 30 C0.53235526 19.90994238 -0.28734152 10.2165875 0 0 Z " fill="#8A09AC" transform="translate(402,609)"/>
<path d="M0 0 C0.33 1.32 0.66 2.64 1 4 C1.66 4 2.32 4 3 4 C4.03841194 8.32249522 4.25126078 12.57444597 4.3125 17 C4.34150391 17.69867187 4.37050781 18.39734375 4.40039062 19.1171875 C4.44689995 22.90948598 4.12153594 24.81945918 1.98046875 28 C1.32691406 28.66 0.67335938 29.32 0 30 C-1.32 29.67 -2.64 29.34 -4 29 C-3.360625 28.38125 -2.72125 27.7625 -2.0625 27.125 C1.40650387 23.5508748 1.14716845 21.06660339 1.1015625 16.30078125 C0.97711951 13.48166879 0.47319842 10.78004072 0 8 C-0.0827826 5.32660892 -0.04613285 2.67570525 0 0 Z " fill="#900DB4" transform="translate(432,649)"/>
<path d="M0 0 C0.66 0 1.32 0 2 0 C2.20063257 5.41707927 1.6761124 10.1180054 0.5 15.40234375 C-0.1688984 18.87747995 -0.38289797 22.34017541 -0.55859375 25.87109375 C-1.08972439 28.43274153 -2.01622559 29.35478975 -4 31 C-3.5590608 20.41745916 -2.16439096 10.35912908 0 0 Z " fill="#9D15BE" transform="translate(609,571)"/>
<path d="M0 0 C0.99 0.495 0.99 0.495 2 1 C2.63234514 3.26832064 3.15773875 5.56701261 3.625 7.875 C3.88539063 9.13054688 4.14578125 10.38609375 4.4140625 11.6796875 C5 15 5 15 5 18 C5.66 18 6.32 18 7 18 C8.52448631 20.9826906 9.93940067 23.818202 11 27 C8 27 8 27 6.0625 25.25 C1.09905034 17.4288066 -0.73098648 9.17794131 0 0 Z " fill="#900DB3" transform="translate(328,696)"/>
<path d="M0 0 C2 1 2 1 3.0234375 4.0546875 C4.06429325 8.04497403 4.87406625 12.07149025 5.625 16.125 C5.7590625 16.81464844 5.893125 17.50429688 6.03125 18.21484375 C6.71344724 21.85554944 7.15857823 25.29503587 7 29 C6.34 29 5.68 29 5 29 C3.66666667 23.66666667 2.33333333 18.33333333 1 13 C0.81695312 12.30841797 0.63390625 11.61683594 0.4453125 10.90429688 C-0.08500896 8.63647485 -0.09670486 6.57593062 -0.0625 4.25 C-0.05347656 3.45078125 -0.04445313 2.6515625 -0.03515625 1.828125 C-0.02355469 1.22484375 -0.01195312 0.6215625 0 0 Z " fill="#8708A8" transform="translate(284,501)"/>
<path d="M0 0 C0.99 0.33 1.98 0.66 3 1 C2.23528638 4.14735248 1.46208223 7.292563 0.6875 10.4375 C0.47416016 11.31599609 0.26082031 12.19449219 0.04101562 13.09960938 C-1.37717574 18.83587593 -3.03962327 24.42557804 -5 30 C-5.66 30 -6.32 30 -7 30 C-6.80664062 29.26136719 -6.61328125 28.52273438 -6.4140625 27.76171875 C-4.85734698 21.69669345 -3.53664916 15.66155817 -2.47265625 9.4921875 C-1.85715079 6.24679506 -0.98074825 3.15240508 0 0 Z " fill="#9D10BE" transform="translate(663,589)"/>
<path d="M0 0 C0.66 0 1.32 0 2 0 C2.35217795 4.93049126 1.71114607 7.84855758 -1 12 C-8.96548631 19.91661829 -8.96548631 19.91661829 -13.3828125 20.09765625 C-14.28773438 20.08605469 -15.19265625 20.07445312 -16.125 20.0625 C-17.03507813 20.05347656 -17.94515625 20.04445313 -18.8828125 20.03515625 C-19.93082031 20.01775391 -19.93082031 20.01775391 -21 20 C-21 19.67 -21 19.34 -21 19 C-20.41992188 18.90203125 -19.83984375 18.8040625 -19.2421875 18.703125 C-12.78009557 17.46615691 -8.48255064 15.48255064 -3.75 10.75 C-1.49226695 7.20213379 -0.83636885 4.11214685 0 0 Z " fill="#8A04B4" transform="translate(748,464)"/>
<path d="M0 0 C0.66 0.66 1.32 1.32 2 2 C1.2575 2.515625 0.515 3.03125 -0.25 3.5625 C-7.04079065 9.58160989 -7.99313017 16.60927553 -8.5625 25.3125 C-8.64628906 26.56675781 -8.73007812 27.82101562 -8.81640625 29.11328125 C-8.87699219 30.06589844 -8.93757813 31.01851563 -9 32 C-9.33 32 -9.66 32 -10 32 C-10.27846201 29.16695172 -10.52319597 26.33727391 -10.75 23.5 C-10.83121094 22.70851563 -10.91242188 21.91703125 -10.99609375 21.1015625 C-11.4388175 15.10019607 -10.39764303 10.99567462 -7 6 C-5.078125 3.90625 -5.078125 3.90625 -3.25 2.5 C-2.63640625 2.0153125 -2.0228125 1.530625 -1.390625 1.03125 C-0.93171875 0.6909375 -0.4728125 0.350625 0 0 Z " fill="#8C0BAF" transform="translate(267,435)"/>
<path d="M0 0 C0.66 0 1.32 0 2 0 C2.26404456 6.86515862 1.25841946 13.25846717 0 20 C-0.99 20.33 -1.98 20.66 -3 21 C-5.16921205 14.49236385 -1.99368253 6.40826528 0 0 Z " fill="#8C0AAE" transform="translate(647,660)"/>
<path d="M0 0 C0.66 0 1.32 0 2 0 C1.07371821 7.21860981 -1.21017186 12.94207889 -4.66015625 19.3359375 C-5.8042084 21.61070008 -6.52334522 23.51668747 -7 26 C-7.66 26 -8.32 26 -9 26 C-7.90502776 19.09879336 -6.0235063 13.27869892 -3 7 C-2.40926844 5.64904428 -1.82522167 4.29513219 -1.25 2.9375 C-0.8375 1.968125 -0.425 0.99875 0 0 Z " fill="#980CB8" transform="translate(504,381)"/>
<path d="M0 0 C4.48607262 0.44860726 6.38608905 1.39335166 9.75 4.375 C11.06389076 6.68171798 11.87485499 8.84680331 12.75 11.375 C12.09 11.375 11.43 11.375 10.75 11.375 C8.75 9.375 8.75 9.375 6.75 6.375 C6.75 5.715 6.75 5.055 6.75 4.375 C6.13511719 4.31441406 5.52023437 4.25382812 4.88671875 4.19140625 C4.07847656 4.10761719 3.27023437 4.02382813 2.4375 3.9375 C1.63699219 3.85628906 0.83648437 3.77507812 0.01171875 3.69140625 C-2.25 3.375 -2.25 3.375 -5.25 2.375 C-3.25 0.375 -3.25 0.375 0 0 Z " fill="#8C09B3" transform="translate(501.25,435.625)"/>
<path d="M0 0 C1.49901184 4.05052136 0.73219392 8.01892408 0.1875 12.1875 C0.10435547 12.92419922 0.02121094 13.66089844 -0.06445312 14.41992188 C-0.30028769 16.29110565 -0.64220671 18.14826281 -1 20 C-1.66 20.33 -2.32 20.66 -3 21 C-4.33257403 10.44191344 -4.33257403 10.44191344 -3 6 C-2.34 6 -1.68 6 -1 6 C-0.67 4.02 -0.34 2.04 0 0 Z " fill="#8C09AF" transform="translate(588,552)"/>
<path d="M0 0 C0.66 0 1.32 0 2 0 C5.64361029 12.46618867 5.64361029 12.46618867 6 19 C5.34 19.66 4.68 20.32 4 21 C1.88329723 13.99757448 0.45965708 7.30696249 0 0 Z " fill="#8A0BAF" transform="translate(335,559)"/>
<path d="M0 0 C1.61648438 0.04060547 1.61648438 0.04060547 3.265625 0.08203125 C4.08546875 0.11683594 4.9053125 0.15164063 5.75 0.1875 C6.08 0.8475 6.41 1.5075 6.75 2.1875 C6.00234375 2.24808594 5.2546875 2.30867187 4.484375 2.37109375 C3.49953125 2.45488281 2.5146875 2.53867187 1.5 2.625 C0.52546875 2.70621094 -0.4490625 2.78742187 -1.453125 2.87109375 C-4.92424746 3.23349612 -4.92424746 3.23349612 -8.25 4.1875 C-8.58 5.1775 -8.91 6.1675 -9.25 7.1875 C-9.91 7.1875 -10.57 7.1875 -11.25 7.1875 C-10.89354476 4.60319949 -10.47873858 3.41192276 -8.59375 1.5625 C-5.55847249 -0.21819614 -3.49290545 -0.11389909 0 0 Z " fill="#9512B7" transform="translate(503.25,519.8125)"/>
<path d="M0 0 C0.33 0 0.66 0 1 0 C0.85761163 2.04190981 0.71092972 4.08352045 0.5625 6.125 C0.48128906 7.26195312 0.40007813 8.39890625 0.31640625 9.5703125 C0.02269035 12.7540478 -0.43124313 15.85510907 -1 19 C-1.33 19 -1.66 19 -2 19 C-2.19561869 16.9174133 -2.38119313 14.83388144 -2.5625 12.75 C-2.66691406 11.58984375 -2.77132812 10.4296875 -2.87890625 9.234375 C-2.98198087 6.48128523 -2.86213473 4.580018 -2 2 C-1.34 2 -0.68 2 0 2 C0 1.34 0 0.68 0 0 Z " fill="#9510B6" transform="translate(651,647)"/>
<path d="M0 0 C2.42047458 0.66771713 3.70057106 1.48445098 4.96875 3.66796875 C7.00424173 8.5399559 7.17388851 11.87757739 6 17 C4.13472451 14.20208676 3.35086007 12.24252328 2.4375 9.0625 C2.18871094 8.20785156 1.93992187 7.35320312 1.68359375 6.47265625 C1.08896963 4.32181586 0.52816256 2.16798155 0 0 Z " fill="#890CAC" transform="translate(744,441)"/>
<path d="M0 0 C0.33 0 0.66 0 1 0 C1.66 6.6 2.32 13.2 3 20 C2.34 20.33 1.68 20.66 1 21 C-0.50382815 13.65485589 -1.23649903 7.4189942 0 0 Z " fill="#9113B5" transform="translate(430,626)"/>
<path d="M0 0 C0.33 0.99 0.66 1.98 1 3 C1.66 3 2.32 3 3 3 C5.29612756 14.52164009 5.29612756 14.52164009 5 20 C3.33933899 16.93138727 2.29822725 13.92435277 1.375 10.5625 C1.11460937 9.63566406 0.85421875 8.70882812 0.5859375 7.75390625 C0.01618796 5.07608341 -0.10889863 2.72741575 0 0 Z " fill="#8709AD" transform="translate(340,582)"/>
<path d="M0 0 C0.33 0 0.66 0 1 0 C1 2.31 1 4.62 1 7 C1.66 7 2.32 7 3 7 C3 10.96 3 14.92 3 19 C2.01 19 1.02 19 0 19 C0 12.73 0 6.46 0 0 Z " fill="#9117B4" transform="translate(464,435)"/>
<path d="M0 0 C0.33 0 0.66 0 1 0 C1.25287193 6.06892629 0.69832609 11.16200408 -1 17 C-1.66 17 -2.32 17 -3 17 C-2.54775239 11.08507728 -1.8417395 5.64800112 0 0 Z " fill="#8E0FB2" transform="translate(683,674)"/>
<path d="M0 0 C0.33 0 0.66 0 1 0 C1.17015625 0.60328125 1.3403125 1.2065625 1.515625 1.828125 C2.96189671 6.59774447 4.13127043 9.66488831 8 13 C8 13.66 8 14.32 8 15 C4.139128 14.14202844 2.41363942 13.5737579 0.0625 10.3125 C-1.17898682 6.44198226 -0.86524278 3.93292171 0 0 Z " fill="#870BAA" transform="translate(410,664)"/>
<path d="M0 0 C0.33 0 0.66 0 1 0 C1.05449838 1.72880982 1.09301688 3.45812712 1.125 5.1875 C1.14820313 6.15042969 1.17140625 7.11335937 1.1953125 8.10546875 C0.9913544 11.12812778 0.26874632 13.26769985 -1 16 C-1.66 15.34 -2.32 14.68 -3 14 C-2.9765625 11.8359375 -2.9765625 11.8359375 -2.625 9.375 C-2.51414062 8.55773437 -2.40328125 7.74046875 -2.2890625 6.8984375 C-2.19367187 6.27195312 -2.09828125 5.64546875 -2 5 C-1.34 5 -0.68 5 0 5 C0 3.35 0 1.7 0 0 Z " fill="#8E0EB1" transform="translate(590,535)"/>
<path d="M0 0 C0.99 0.33 1.98 0.66 3 1 C1.68 6.28 0.36 11.56 -1 17 C-1.33 17 -1.66 17 -2 17 C-2.22084624 10.90218999 -2.01167675 5.78357065 0 0 Z " fill="#8C08B0" transform="translate(663,589)"/>
<path d="M0 0 C0.33 1.32 0.66 2.64 1 4 C1.66 4 2.32 4 3 4 C3.77916092 9.02125926 4.13016601 12.97703996 3 18 C0.59880941 14.39821412 0.56228678 11.49133631 0.375 7.3125 C0.33632813 6.61060547 0.29765625 5.90871094 0.2578125 5.18554688 C0.1637666 3.45745345 0.0808032 1.72876325 0 0 Z " fill="#8709AB" transform="translate(416,540)"/>
<path d="M0 0 C-0.05995322 1.79260132 -0.1487241 3.58425795 -0.25 5.375 C-0.29640625 6.37273438 -0.3428125 7.37046875 -0.390625 8.3984375 C-1 11 -1 11 -3.046875 12.3515625 C-3.69140625 12.56554687 -4.3359375 12.77953125 -5 13 C-4.719172 11.01926635 -4.42503386 9.04041552 -4.125 7.0625 C-3.96257813 5.96035156 -3.80015625 4.85820313 -3.6328125 3.72265625 C-3.42398438 2.82417969 -3.21515625 1.92570313 -3 1 C-1 0 -1 0 0 0 Z " fill="#9212B4" transform="translate(582,601)"/>
<path d="M0 0 C1.93590006 3.22151709 2.19948673 5.34406228 1.8125 9.0625 C1.69841797 10.34833984 1.69841797 10.34833984 1.58203125 11.66015625 C0.92467642 14.30281092 0.07529546 15.29389456 -2 17 C-1.85941524 14.54126232 -1.71277001 12.08314825 -1.5625 9.625 C-1.52318359 8.92632813 -1.48386719 8.22765625 -1.44335938 7.5078125 C-1.11328125 2.2265625 -1.11328125 2.2265625 0 0 Z " fill="#8A0AB0" transform="translate(607,585)"/>
<path d="M0 0 C0.66 0.33 1.32 0.66 2 1 C1.7589852 7.14587738 1.7589852 7.14587738 -0.40234375 9.578125 C-1.88046971 10.78844931 -3.43647953 11.90220903 -5 13 C-5.66 12.34 -6.32 11.68 -7 11 C-6.21625 10.29875 -5.4325 9.5975 -4.625 8.875 C-1.91639182 5.90842914 -0.98277285 3.8417484 0 0 Z " fill="#850DAD" transform="translate(595,667)"/>
<path d="M0 0 C2.47619668 2.47619668 2.61597395 4.02734558 3.25 7.4375 C3.44078125 8.40558594 3.6315625 9.37367188 3.828125 10.37109375 C4 13 4 13 2 16 C1.46748234 14.08654673 0.94940517 12.1690705 0.4375 10.25 C0.14746094 9.18265625 -0.14257812 8.1153125 -0.44140625 7.015625 C-0.97098494 4.15664073 -0.98370862 2.68402617 0 0 Z " fill="#900CB5" transform="translate(313,629)"/>
<path d="M0 0 C0.33 0.66 0.66 1.32 1 2 C1.66 2 2.32 2 3 2 C5.28571429 10.42857143 5.28571429 10.42857143 5 15 C4.34 15 3.68 15 3 15 C2.49564306 13.0636296 1.99666126 11.12585854 1.5 9.1875 C1.2215625 8.10855469 0.943125 7.02960937 0.65625 5.91796875 C0 3 0 3 0 0 Z " fill="#8E0BB1" transform="translate(286,515)"/>
<path d="M0 0 C1.16161779 2.86578759 0.9946154 4.01630163 0.00390625 7.015625 C-0.70958984 8.61664063 -0.70958984 8.61664063 -1.4375 10.25 C-1.91058594 11.32765625 -2.38367188 12.4053125 -2.87109375 13.515625 C-3.24363281 14.33546875 -3.61617187 15.1553125 -4 16 C-4.33 16 -4.66 16 -5 16 C-4.55643705 9.79011871 -3.08467498 5.39459439 0 0 Z " fill="#920CBA" transform="translate(568,348)"/>
<path d="M0 0 C1.65376718 0.73233973 3.29787304 1.48652714 4.9375 2.25 C5.85402344 2.66765625 6.77054688 3.0853125 7.71484375 3.515625 C10 5 10 5 10.81640625 7.171875 C10.87699219 7.77515625 10.93757812 8.3784375 11 9 C10.34 9 9.68 9 9 9 C9 8.34 9 7.68 9 7 C5.37802806 5.50859979 1.72433382 4.2125738 -2 3 C-1.34 2.67 -0.68 2.34 0 2 C0 1.34 0 0.68 0 0 Z " fill="#910FB3" transform="translate(561,301)"/>
<path d="M0 0 C1.18771723 3.42943519 0.80226223 5.37784675 -0.4375 8.75 C-0.72496094 9.54921875 -1.01242187 10.3484375 -1.30859375 11.171875 C-1.53675781 11.77515625 -1.76492188 12.3784375 -2 13 C-2.99 13 -3.98 13 -5 13 C-4.745504 11.51793505 -4.47088238 10.03931385 -4.1875 8.5625 C-4.03667969 7.73878906 -3.88585937 6.91507813 -3.73046875 6.06640625 C-3.48941406 5.38449219 -3.24835937 4.70257812 -3 4 C-2.01 3.67 -1.02 3.34 0 3 C0 2.01 0 1.02 0 0 Z " fill="#9110B1" transform="translate(678,532)"/>
<path d="M0 0 C0.33 0 0.66 0 1 0 C2.3792223 6.30338787 3.41117949 11.6496923 2 18 C-0.37590142 14.29583874 -0.20500286 11.07015427 -0.125 6.75 C-0.10695313 5.48671875 -0.08890625 4.2234375 -0.0703125 2.921875 C-0.04710937 1.95765625 -0.02390625 0.9934375 0 0 Z " fill="#9310B3" transform="translate(402,609)"/>
<path d="M0 0 C0.33 0 0.66 0 1 0 C1.07654536 4.51617599 1.10228696 8.59085217 0 13 C-0.99 12.67 -1.98 12.34 -3 12 C-3.125 9.125 -3.125 9.125 -3 6 C-2.34 5.34 -1.68 4.68 -1 4 C-0.3574765 1.93125966 -0.3574765 1.93125966 0 0 Z " fill="#8C09AF" transform="translate(667,576)"/>
<path d="M0 0 C2.78998135 2.59498265 3.63260859 4.14239018 4 8 C3.5625 10.8125 3.5625 10.8125 3 13 C0.89172945 9.83759418 0.66182535 8.49342531 0.375 4.8125 C0.30023438 3.91144531 0.22546875 3.01039063 0.1484375 2.08203125 C0.09945313 1.39496094 0.05046875 0.70789063 0 0 Z " fill="#8C0CB1" transform="translate(332,545)"/>
<path d="M0 0 C0.66 0.99 1.32 1.98 2 3 C-3.75 8 -3.75 8 -6 8 C-6 5 -6 5 -4.6875 3.3125 C-3 2 -3 2 0 2 C0 1.34 0 0.68 0 0 Z " fill="#9114B4" transform="translate(511,448)"/>
<path d="M0 0 C1.6415049 3.2830098 0.51888624 6.42545033 0 10 C-3 10 -3 10 -5 9 C-4.3566152 7.686298 -3.71021785 6.37407102 -3.0625 5.0625 C-2.70285156 4.33160156 -2.34320313 3.60070312 -1.97265625 2.84765625 C-1 1 -1 1 0 0 Z " fill="#9B0EB7" transform="translate(490,415)"/>
<path d="M0 0 C0.33 0.99 0.66 1.98 1 3 C1.66 3 2.32 3 3 3 C4.23076923 8.41538462 4.23076923 8.41538462 3.0625 11.375 C2.711875 11.91125 2.36125 12.4475 2 13 C-0.28571429 4.57142857 -0.28571429 4.57142857 0 0 Z " fill="#8203A7" transform="translate(348,617)"/>
<path d="M0 0 C2.83022097 3.99560608 1.76210446 7.42737323 1 12 C0.34 12 -0.32 12 -1 12 C-1.02712066 10.56260487 -1.04645067 9.12506137 -1.0625 7.6875 C-1.07410156 6.88699219 -1.08570313 6.08648438 -1.09765625 5.26171875 C-1 3 -1 3 0 0 Z " fill="#8B10B1" transform="translate(604,603)"/>
<path d="M0 0 C0.99 0.33 1.98 0.66 3 1 C2.09972412 2.03531726 1.17906965 3.05294165 0.25 4.0625 C-0.51570312 4.91521484 -0.51570312 4.91521484 -1.296875 5.78515625 C-3 7 -3 7 -5.203125 6.68359375 C-5.79609375 6.45800781 -6.3890625 6.23242188 -7 6 C-5.90716423 4.96704564 -4.80029421 3.94892165 -3.6875 2.9375 C-3.07261719 2.36902344 -2.45773437 1.80054688 -1.82421875 1.21484375 C-0.92123047 0.61349609 -0.92123047 0.61349609 0 0 Z " fill="#8A13B2" transform="translate(519,460)"/>
<path d="M0 0 C2.02350324 3.03525486 2.32124018 4.19426202 2.625 7.6875 C2.69976562 8.49574219 2.77453125 9.30398438 2.8515625 10.13671875 C2.90054687 10.75160156 2.94953125 11.36648438 3 12 C2.67 11.34 2.34 10.68 2 10 C1.34 10 0.68 10 0 10 C0 6.7 0 3.4 0 0 Z " fill="#8B0AAD" transform="translate(305,593)"/>
<path d="M0 0 C0.99 0.33 1.98 0.66 3 1 C2.625 3.9375 2.625 3.9375 2 7 C1.01 7.495 1.01 7.495 0 8 C-0.66 8.99 -1.32 9.98 -2 11 C-1.85892253 9.54119891 -1.71197585 8.08296449 -1.5625 6.625 C-1.48128906 5.81289063 -1.40007813 5.00078125 -1.31640625 4.1640625 C-1 2 -1 2 0 0 Z " fill="#9713B5" transform="translate(667,572)"/>
<path d="M0 0 C1.2380014 3.57644848 0.74926071 6.33694766 0 10 C-0.66 10 -1.32 10 -2 10 C-2.33 10.99 -2.66 11.98 -3 13 C-3 10.69 -3 8.38 -3 6 C-2.34 6 -1.68 6 -1 6 C-0.67 4.02 -0.34 2.04 0 0 Z " fill="#9313B3" transform="translate(588,552)"/>
<path d="M0 0 C0.66 0 1.32 0 2 0 C1.34 3.3 0.68 6.6 0 10 C-1.32 9.67 -2.64 9.34 -4 9 C-2.68 6.03 -1.36 3.06 0 0 Z " fill="#A20CBB" transform="translate(504,381)"/>
<path d="M0 0 C0.33 0.99 0.66 1.98 1 3 C1.66 3 2.32 3 3 3 C3.33 5.64 3.66 8.28 4 11 C3.01 11.495 3.01 11.495 2 12 C0.70756464 7.8803623 -0.26252625 4.33168317 0 0 Z " fill="#8E09B5" transform="translate(345,604)"/>
<path d="M0 0 C0.33 0 0.66 0 1 0 C1.08121924 1.60332791 1.13929134 3.20784026 1.1875 4.8125 C1.23970703 6.15248047 1.23970703 6.15248047 1.29296875 7.51953125 C0.95081002 10.41647515 0.24606427 11.22555028 -2 13 C-1.85769192 11.58297487 -1.71099254 10.1663904 -1.5625 8.75 C-1.48128906 7.96109375 -1.40007813 7.1721875 -1.31640625 6.359375 C-1.02365007 4.17635361 -0.57935581 2.1226818 0 0 Z " fill="#8706AF" transform="translate(723,493)"/>
<path d="M0 0 C0.33 0 0.66 0 1 0 C1.25 7.625 1.25 7.625 -1 11 C-2.23076923 4.6 -2.23076923 4.6 -1.0625 1.5625 C-0.711875 1.046875 -0.36125 0.53125 0 0 Z " fill="#9111B6" transform="translate(725,485)"/>
<path d="M0 0 C1.231394 3.69418201 0.64432764 6.2056261 0 10 C-0.99 10 -1.98 10 -3 10 C-3.36923077 4.58461538 -3.36923077 4.58461538 -1.5 1.625 C-1.005 1.08875 -0.51 0.5525 0 0 Z " fill="#9810B9" transform="translate(494,439)"/>
<path d="M0 0 C0.66 0.66 1.32 1.32 2 2 C-2.455 4.97 -2.455 4.97 -7 8 C-4.9957983 3.9915966 -3.50944037 2.58590343 0 0 Z " fill="#8D18B3" transform="translate(267,435)"/>
<path d="M0 0 C1.45922693 0.11409593 2.91740598 0.24165544 4.375 0.375 C5.59316406 0.47941406 5.59316406 0.47941406 6.8359375 0.5859375 C9 1 9 1 11 3 C7.7 3 4.4 3 1 3 C0.67 2.01 0.34 1.02 0 0 Z " fill="#8401A6" transform="translate(349,729)"/>
<path d="M0 0 C2.7558573 4.13378595 3.10756445 6.05203546 3 11 C2.67 10.34 2.34 9.68 2 9 C1.34 9 0.68 9 0 9 C0 6.03 0 3.06 0 0 Z " fill="#8607AC" transform="translate(308,607)"/>
<path d="M0 0 C0.33 0 0.66 0 1 0 C1.125 6.625 1.125 6.625 0 10 C-0.66 10 -1.32 10 -2 10 C-1.85950482 8.52031676 -1.71245174 7.04125484 -1.5625 5.5625 C-1.48128906 4.73878906 -1.40007812 3.91507812 -1.31640625 3.06640625 C-1 1 -1 1 0 0 Z " fill="#8707AB" transform="translate(467,432)"/>
<path d="M0 0 C0.66 0 1.32 0 2 0 C2.3367697 4.93928888 2.16130459 5.78492722 -1 10 C-0.67 6.7 -0.34 3.4 0 0 Z " fill="#8C14B3" transform="translate(748,464)"/>
<path d="M0 0 C0.33 0 0.66 0 1 0 C1.22245393 1.60226955 1.42746669 3.20696767 1.625 4.8125 C1.74101563 5.70582031 1.85703125 6.59914063 1.9765625 7.51953125 C2 10 2 10 0 13 C-1.0161692 8.37078475 -0.83796731 4.65537393 0 0 Z " fill="#910EB5" transform="translate(576,621)"/>
<path d="M0 0 C0.66 0 1.32 0 2 0 C2 2.31 2 4.62 2 7 C1.34 7 0.68 7 0 7 C-0.33 7.66 -0.66 8.32 -1 9 C-0.67 6.03 -0.34 3.06 0 0 Z " fill="#8C11B0" transform="translate(609,571)"/>
<path d="M0 0 C0.33 0 0.66 0 1 0 C0.67 3.3 0.34 6.6 0 10 C-0.66 9.67 -1.32 9.34 -2 9 C-2.25 3.375 -2.25 3.375 0 0 Z " fill="#970CB8" transform="translate(614,546)"/>
<path d="M0 0 C0.33 0.99 0.66 1.98 1 3 C-0.4375 5.1875 -0.4375 5.1875 -2 7 C-2.33 6.67 -2.66 6.34 -3 6 C-3.99 6.99 -4.98 7.98 -6 9 C-5.52797514 4.75177626 -3.03344482 2.80010291 0 0 Z " fill="#8F18B3" transform="translate(530,439)"/>
<path d="M0 0 C1.32 0 2.64 0 4 0 C4 0.66 4 1.32 4 2 C3.01 2.495 3.01 2.495 2 3 C0.86649466 5.01669827 0.86649466 5.01669827 0 7 C-0.33 7 -0.66 7 -1 7 C-1.04254356 5.00045254 -1.04080783 2.99958364 -1 1 C-0.67 0.67 -0.34 0.34 0 0 Z " fill="#8C05AF" transform="translate(546,432)"/>
<path d="M0 0 C1.70884005 1.62339805 3.37446717 3.29319053 5 5 C5 5.66 5 6.32 5 7 C4.01 7 3.02 7 2 7 C0.25 4.625 0.25 4.625 -1 2 C-0.67 1.34 -0.34 0.68 0 0 Z " fill="#870BAF" transform="translate(334,716)"/>
<path d="M0 0 C1.485 0.99 1.485 0.99 3 2 C2.67 4.97 2.34 7.94 2 11 C1.67 11 1.34 11 1 11 C0.67 7.37 0.34 3.74 0 0 Z " fill="#8402AA" transform="translate(425,602)"/>
<path d="M0 0 C1.5 1 1.5 1 3 3 C3.27345479 5.71846235 3.13491285 8.25677199 3 11 C2.67 9.68 2.34 8.36 2 7 C1.34 7 0.68 7 0 7 C0 4.69 0 2.38 0 0 Z " fill="#9013B1" transform="translate(424,595)"/>
<path d="M0 0 C1.51953125 1.20703125 1.51953125 1.20703125 3 3 C3.07421875 5.26171875 3.07421875 5.26171875 2.6875 7.6875 C2.50767578 8.89986328 2.50767578 8.89986328 2.32421875 10.13671875 C2.21722656 10.75160156 2.11023438 11.36648438 2 12 C1.67 12 1.34 12 1 12 C0.01751476 7.9472484 -0.08159574 4.16138263 0 0 Z " fill="#890BAE" transform="translate(420,568)"/>
<path d="M0 0 C0.93423645 3.01031744 1.04449911 3.86650268 0 7 C-0.66 7 -1.32 7 -2 7 C-2.66 8.32 -3.32 9.64 -4 11 C-3.39301257 6.87248551 -1.96189209 3.6678852 0 0 Z " fill="#8404AA" transform="translate(541,411)"/>
<path d="M0 0 C2.4294516 3.6441774 2.16179575 5.71241272 2 10 C0.4375 8.9375 0.4375 8.9375 -1 7 C-0.6875 3.3125 -0.6875 3.3125 0 0 Z " fill="#900FAD" transform="translate(394,556)"/>
<path d="M0 0 C0.99 0.66 1.98 1.32 3 2 C2.01 2.33 1.02 2.66 0 3 C-0.33 3.99 -0.66 4.98 -1 6 C-1.66 6 -2.32 6 -3 6 C-2.42655063 3.13275314 -2.1385485 2.1385485 0 0 Z " fill="#8C0BAD" transform="translate(495,521)"/>
<path d="M0 0 C1.32 0.66 2.64 1.32 4 2 C4 2.66 4 3.32 4 4 C4.66 4 5.32 4 6 4 C5.67 4.66 5.34 5.32 5 6 C4.34 6 3.68 6 3 6 C1.61767557 4.37373596 0.28062485 2.7074998 -1 1 C-0.67 0.67 -0.34 0.34 0 0 Z " fill="#9E0CBF" transform="translate(740,436)"/>
<path d="M0 0 C0.66 0 1.32 0 2 0 C1.71848913 1.31471568 1.42446661 2.62675767 1.125 3.9375 C0.96257813 4.66839844 0.80015625 5.39929688 0.6328125 6.15234375 C0 8 0 8 -2 9 C-1.125 2.25 -1.125 2.25 0 0 Z " fill="#8B0DB2" transform="translate(543,406)"/>
<path d="M0 0 C0.33 0.66 0.66 1.32 1 2 C0.06553465 4.03144641 -0.93224776 6.03533587 -2 8 C-2.66 8 -3.32 8 -4 8 C-3.40138258 5.64828869 -2.73075648 3.3140622 -2 1 C-1.34 0.67 -0.68 0.34 0 0 Z " fill="#8C09AE" transform="translate(502,390)"/>
</svg>
