<?xml version="1.0" encoding="UTF-8"?>
<svg version="1.1" xmlns="http://www.w3.org/2000/svg" width="1024" height="1024">
<path d="M0 0 C337.92 0 675.84 0 1024 0 C1024 337.92 1024 675.84 1024 1024 C686.08 1024 348.16 1024 0 1024 C0 686.08 0 348.16 0 0 Z " fill="#FEFEFE" transform="translate(0,0)"/>
<path d="M0 0 C1.92263231 0.00169448 3.8452685 0.00073848 5.76789856 -0.00265503 C10.96376569 -0.00437031 16.15879479 0.03080398 21.35446787 0.07278872 C26.79298005 0.11040082 32.23151332 0.11382934 37.6701355 0.12094116 C47.95832543 0.13955922 58.24613094 0.1887552 68.53415191 0.2490381 C80.25115605 0.31619782 91.96817894 0.34911606 103.68532777 0.37921071 C127.77854978 0.44185683 151.87143104 0.5473328 175.96435547 0.68115234 C175.4544576 2.67445882 174.94455973 4.6677653 174.43466187 6.66107178 C172.23086962 16.12689646 174.55195711 25.67411973 179.28466797 34.00537109 C184.18816074 41.03906974 191.84174647 47.22240993 200.29248047 49.23583984 C211.32655237 51.07485183 222.10177424 49.41925652 231.33935547 42.86865234 C233.1413908 41.51521934 233.1413908 41.51521934 234.96435547 39.68115234 C235.88861328 38.78783203 236.81287109 37.89451172 237.76513672 36.97412109 C242.63781096 31.20076347 245.00769034 23.74752627 247.77685547 16.80615234 C248.65041751 14.65096545 249.52769128 12.49733838 250.40690613 10.3444519 C250.94969098 9.01175119 251.48849372 7.67742026 252.02290344 6.34133911 C253.85618169 1.78932612 253.85618169 1.78932612 254.96435547 0.68115234 C257.3346662 0.57464658 259.67618624 0.53336628 262.04736328 0.53398132 C262.7973248 0.53030464 263.54728632 0.52662795 264.31997395 0.52283984 C266.85248289 0.51175891 269.38495086 0.50795166 271.91748047 0.50415039 C273.72566357 0.49788881 275.53384538 0.49124229 277.34202576 0.48423767 C282.27009513 0.4667936 287.19815477 0.45626558 292.12624741 0.44803214 C295.20498576 0.44288675 298.28372107 0.43681066 301.36245728 0.43052101 C310.99414097 0.41145517 320.62581696 0.39722982 330.25751591 0.38890904 C341.37630557 0.37914554 352.49489567 0.35285503 363.61361504 0.31240815 C372.20478928 0.28222899 380.79590642 0.26743826 389.38713264 0.26412803 C394.51887983 0.26177861 399.65041417 0.25283292 404.78210449 0.22766685 C409.61497745 0.20435126 414.44749801 0.20016698 419.28041267 0.21042824 C421.05045813 0.21092294 422.82052111 0.20462182 424.59051323 0.19087219 C443.92363052 0.04914572 443.92363052 0.04914572 450.78813171 6.3570509 C457.62193694 13.56698143 458.52144263 20.29319018 458.31982422 30.00927734 C457.84563899 34.90745441 456.56410377 38.53780349 453.96435547 42.68115234 C453.38685547 43.60927734 452.80935547 44.53740234 452.21435547 45.49365234 C447.96073627 49.62911546 443.45344982 51.92053338 437.46435547 51.93115234 C436.30935547 51.84865234 435.15435547 51.76615234 433.96435547 51.68115234 C433.82719116 52.85339355 433.82719116 52.85339355 433.68725586 54.04931641 C432.43358154 63.77945124 430.34387722 73.18555341 428.05380249 82.71524048 C426.91999274 87.43851899 425.80841675 92.16700025 424.69873047 96.89599609 C424.4706218 97.86768234 424.24251312 98.83936859 424.00749207 99.84049988 C421.5893853 110.19654573 419.35681353 120.59047756 417.15185547 130.99365234 C416.407169 134.50278926 415.66237935 138.01190426 414.91748047 141.52099609 C414.74414185 142.33810059 414.57080322 143.15520508 414.39221191 143.99707031 C412.9380228 150.8379929 411.41530927 157.66141588 409.84375 164.47631836 C407.66970991 173.91039631 405.59046463 183.36532297 403.49868774 192.81790161 C401.19896849 203.20344279 398.85440933 213.57560561 396.39208984 223.92407227 C394.88872987 230.35073676 393.52736917 236.79250182 392.24255371 243.2660675 C391.39658949 247.52317579 390.53299388 251.77665959 389.67010498 256.03036499 C389.24516869 258.15309093 388.82917991 260.27762991 388.42266846 262.40396118 C387.84566895 265.41925756 387.2379197 268.42698777 386.62451172 271.43505859 C386.37917946 272.7836496 386.37917946 272.7836496 386.12889099 274.15948486 C384.17254929 283.44974814 378.72844107 289.77056492 371.24951172 295.39208984 C363.68931712 299.656815 357.22925558 300.11720322 348.69390869 300.08229065 C346.85875722 300.09248565 346.85875722 300.09248565 344.98653197 300.10288662 C341.60714252 300.11854598 338.22823349 300.12084946 334.84884214 300.11730349 C331.19769614 300.11668943 327.54662066 300.13326709 323.89550781 300.1474762 C316.74838973 300.17235381 309.6013459 300.18063882 302.45418814 300.18231333 C296.64211396 300.18374083 290.83006419 300.18991514 285.01799774 300.19941521 C268.52477997 300.22582372 252.03162067 300.23967511 235.53838161 300.23742379 C234.20574746 300.23724398 234.20574746 300.23724398 232.84619141 300.23706055 C231.51192236 300.23687658 231.51192236 300.23687658 230.15069839 300.2366889 C215.73885868 300.23546986 201.32725423 300.26417253 186.91548255 300.30647565 C172.10295204 300.34961061 157.29053616 300.3702838 142.47794127 300.36769432 C134.16765003 300.36669989 125.85760544 300.37487537 117.54737091 300.40722847 C110.47124752 300.43460132 103.39548258 300.4410225 96.31932905 300.4207002 C92.71256125 300.41093286 89.10648037 300.4106284 85.49977875 300.43675995 C81.58045039 300.46486318 77.66211459 300.44595344 73.74273682 300.42286682 C72.61586338 300.43829751 71.48898995 300.4537282 70.32796884 300.46962649 C61.14689217 300.35057729 53.32125983 297.65191162 46.45372415 291.39303404 C38.82364477 283.40034273 37.19871331 274.87154073 35.15185547 264.30615234 C34.62651343 261.66562498 34.09357611 259.02667412 33.55810547 256.38818359 C33.42421921 255.72717148 33.29033295 255.06615936 33.15238953 254.38511658 C31.95991052 248.55098881 30.5853102 242.77239013 29.15185547 236.99365234 C26.40971051 225.87608265 24.01941699 214.69534407 21.65185547 203.49365234 C18.34104102 187.83785489 14.79553291 172.25440522 11.06323242 156.6940918 C8.85563047 147.48524996 6.74124807 138.26614507 4.76928711 129.00341797 C3.15933198 121.47706591 1.41538891 113.98537291 -0.34814453 106.49365234 C-2.93971067 95.4684783 -5.46458666 84.43003165 -7.92831421 73.37557983 C-8.290392 71.75108711 -8.65320073 70.12675712 -9.01675415 68.50259399 C-9.52405202 66.23449365 -10.02840093 63.96575947 -10.53173828 61.69677734 C-10.68450226 61.01489853 -10.83726624 60.33301971 -10.99465942 59.63047791 C-12.03564453 54.91105894 -12.03564453 54.91105894 -12.03564453 52.68115234 C-12.59251953 52.66697266 -13.14939453 52.65279297 -13.72314453 52.63818359 C-19.8745989 52.2537177 -24.38430979 50.82580574 -29.03564453 46.68115234 C-36.07675105 37.71815571 -36.28161307 27.68364784 -35.03564453 16.68115234 C-32.93842893 9.75122254 -28.47893555 5.45830731 -22.30276871 1.91547775 C-15.19695078 -0.76911308 -7.4938556 -0.0926892 0 0 Z " fill="#9A20BC" transform="translate(292.03564453125,432.31884765625)"/>
<path d="M0 0 C1.15603454 -0.00768229 2.31206908 -0.01536458 3.50313497 -0.02327967 C4.77393053 -0.0215467 6.04472609 -0.01981374 7.35403061 -0.01802826 C8.71709363 -0.02319608 10.08015362 -0.02922254 11.44320941 -0.03603506 C15.19266333 -0.05217568 18.94204067 -0.05575422 22.69152522 -0.05723 C26.73392972 -0.06093101 30.77629447 -0.07602564 34.81867599 -0.08950043 C43.65959788 -0.11666838 52.50050163 -0.12871665 61.34145832 -0.13752174 C66.86132632 -0.14304629 72.38118731 -0.15152094 77.90105057 -0.16053009 C93.18268138 -0.18491544 108.46430657 -0.20551417 123.74595642 -0.21228027 C125.21314594 -0.21293897 125.21314594 -0.21293897 126.70997564 -0.21361098 C128.18068321 -0.21426581 128.18068321 -0.21426581 129.68110204 -0.21493387 C131.66792377 -0.21582081 133.6547455 -0.21671393 135.64156723 -0.21761322 C136.62710023 -0.21805608 137.61263323 -0.21849894 138.62803087 -0.21895522 C154.59800999 -0.22685163 170.56780661 -0.26176092 186.53771523 -0.30833226 C202.93210769 -0.35575576 219.32640856 -0.3806838 235.72087073 -0.38301611 C244.92647346 -0.38484983 254.1318384 -0.39635952 263.33737564 -0.43265533 C271.17602057 -0.46345273 279.01435425 -0.47370132 286.85304818 -0.45717913 C290.85217788 -0.44936409 294.85068074 -0.45123267 298.84973335 -0.47929382 C302.51296268 -0.50476334 306.17509396 -0.5023879 309.83832166 -0.4781124 C311.78675905 -0.47234555 313.73521533 -0.4960789 315.68350244 -0.52095652 C322.39478193 -0.44512695 326.68545526 0.19654192 331.89014316 4.58556986 C335.12198478 8.27147481 335.65255872 11.27356416 335.52071762 16.17502594 C335.27612845 19.36840829 334.62502854 22.38990764 333.89205551 25.50504303 C333.73636093 26.17753082 333.58066635 26.85001862 333.42025375 27.54288483 C332.90868319 29.74322888 332.38475636 31.94042986 331.86080551 34.13785553 C331.49541624 35.70033004 331.13084772 37.26299668 330.76705551 38.82584381 C329.64331201 43.6409669 328.50361757 48.45222773 327.36080551 53.26285553 C327.01570617 54.7172714 326.67065256 56.17169812 326.32564926 57.62613678 C326.16028168 58.32317719 325.99491409 59.02021759 325.82453537 59.73838043 C325.00241674 63.20466514 324.18137529 66.67120388 323.36080551 70.13785553 C323.19619827 70.83213654 323.03159103 71.52641754 322.8619957 72.24173737 C320.25236962 83.26344094 317.79719409 94.31313392 315.42330551 105.38785553 C312.72194637 117.98043287 309.99915686 130.5675775 307.19524765 143.13779449 C306.81191136 144.85957513 306.43043784 146.58177177 306.05102158 148.30442047 C299.51180366 177.97146147 299.51180366 177.97146147 293.36080551 182.26285553 C287.43575768 185.3938714 282.52850289 185.69385456 275.89207077 185.65726471 C274.85042847 185.66335581 273.80878617 185.66944692 272.73557895 185.6757226 C269.25190046 185.69234611 265.76858773 185.68757759 262.28487778 185.6827774 C259.78453822 185.69011803 257.28420206 185.69870424 254.7838707 185.70844269 C248.70139981 185.7283592 242.61907224 185.73403937 236.53658146 185.7322548 C231.59162963 185.73094575 226.64670749 185.73475859 221.70176125 185.74217987 C220.27588922 185.74427912 218.85001719 185.74637672 217.42414516 185.74847269 C216.35951743 185.75003798 216.35951743 185.75003798 215.27338206 185.7516349 C201.85952356 185.77052429 188.44571978 185.7694909 175.03185349 185.76266557 C162.7673832 185.75708947 150.50312176 185.77792059 138.23870028 185.81102604 C125.63652376 185.84477845 113.03444725 185.85992956 100.43222469 185.85530901 C93.36062236 185.85306608 86.28921311 185.85828163 79.21764946 185.8832016 C72.5683172 185.9064348 65.91934698 185.90361322 59.26998138 185.88327408 C56.83030803 185.87985934 54.39060553 185.88497292 51.9509716 185.89925766 C48.61898037 185.91742061 45.28847027 185.90472113 41.9565239 185.88431549 C40.51035253 185.90309226 40.51035253 185.90309226 39.03496557 185.92224836 C32.57481385 185.83749873 28.40069211 184.34072855 23.36080551 180.26285553 C20.58930325 177.38220531 19.69878434 174.65319664 18.71236801 170.80973053 C18.43215805 169.72917389 18.15194809 168.64861725 17.86324692 167.53531647 C17.57369125 166.37290436 17.28413559 165.21049225 16.98580551 164.01285553 C16.67691391 162.7963028 16.36802231 161.57975006 16.04977036 160.32633209 C13.95540243 151.95975153 12.10124434 143.56529327 10.4027977 135.11075592 C8.52712301 125.84684295 6.38809669 116.65284892 4.23580551 107.45035553 C-0.0006701 89.31624819 -3.94962445 71.12472334 -7.83304214 52.91202545 C-8.27469101 50.8440205 -8.71657989 48.77606678 -9.15872574 46.70816803 C-9.37002121 45.71929092 -9.58131668 44.73041382 -9.79901505 43.71157074 C-11.25027333 36.9615544 -12.78176167 30.23442892 -14.42625809 23.52875519 C-17.23786812 11.92903059 -17.23786812 11.92903059 -14.42825699 7.24332428 C-10.25894901 2.04756231 -6.73359348 0.0167928 0 0 Z " fill="#FDFCFE" transform="translate(343.6391944885254,507.73714447021484)"/>
<path d="M0 0 C6.26147516 3.09911397 10.34506966 7.94795181 13.4453125 14.1484375 C14.49940783 24.00595609 12.40592324 31.36620219 8.3828125 40.2734375 C7.84589634 41.50822082 7.31129059 42.74401093 6.77880859 43.98071289 C5.63357987 46.63108319 4.47523325 49.27516186 3.30712891 51.91552734 C1.3409027 56.3694135 -0.57304502 60.84489331 -2.48046875 65.32421875 C-5.01352723 71.26863022 -7.55381718 77.20975468 -10.109375 83.14453125 C-10.40100021 83.822276 -10.69262543 84.50002075 -10.99308777 85.19830322 C-12.39102976 88.44695696 -13.79055033 91.69491774 -15.19238281 94.94189453 C-17.36278752 99.98145179 -19.52335968 105.01669277 -21.52734375 110.125 C-24.1231944 116.68900438 -27.07976771 123.09568467 -29.9921875 129.5234375 C-31.11795256 132.00948854 -32.24158305 134.49648643 -33.36328125 136.984375 C-34.17514893 138.78406738 -34.17514893 138.78406738 -35.00341797 140.62011719 C-36.87965273 144.88756206 -38.61480574 149.20357702 -40.30102539 153.54931641 C-43.37554046 159.9234717 -47.93801037 163.50449335 -54.3046875 166.3984375 C-62.03610674 168.18261117 -68.26206416 167.70043817 -75.28515625 163.8515625 C-79.68575215 160.54922203 -82.13306647 155.99167957 -84.5546875 151.1484375 C-85.73467695 140.95761952 -83.21785085 133.37595145 -78.9296875 124.2734375 C-78.33464793 122.96253343 -77.74192841 121.65057413 -77.15136719 120.33764648 C-75.92057587 117.61215522 -74.6761717 114.89357343 -73.41894531 112.18017578 C-71.64695142 108.35560892 -69.9040222 104.51853359 -68.171875 100.67578125 C-67.61328412 99.43709181 -67.05469036 98.19840366 -66.49609375 96.9597168 C-66.21813965 96.3431723 -65.94018555 95.72662781 -65.65380859 95.09140015 C-64.79632362 93.19241486 -63.93565531 91.29490074 -63.07421875 89.39770508 C-58.2641127 78.79347159 -53.57999593 68.13609732 -48.9296875 57.4609375 C-48.57003906 56.63644104 -48.21039062 55.81194458 -47.83984375 54.96246338 C-44.17079411 46.54794674 -40.52878092 38.12410466 -36.984375 29.65625 C-36.43711392 28.35501886 -35.88975371 27.05382941 -35.34228516 25.75268555 C-34.35080289 23.3882727 -33.36803148 21.02017897 -32.39599609 18.64770508 C-28.90429211 10.32613211 -25.40655556 4.30442812 -17.14453125 0.0703125 C-11.45733005 -1.95409094 -5.71653163 -1.90551054 0 0 Z " fill="#9B22BC" transform="translate(563.5546875,302.8515625)"/>
<path d="M0 0 C4.05516123 1.5319498 6.07044769 3.89596931 8.15196228 7.6791687 C10.00084415 12.73901781 9.55141116 18.21617384 9.51757812 23.53515625 C9.52300476 24.90413149 9.53013046 26.27310089 9.53881836 27.64205933 C9.55699066 31.34462288 9.55000976 35.04673857 9.53730202 38.74930954 C9.52714254 42.63244544 9.53657585 46.51554416 9.54284668 50.39868164 C9.55011454 56.91852673 9.54055811 63.43819031 9.52148438 69.95800781 C9.49971715 77.48522393 9.50676914 85.01200661 9.52879 92.53921223 C9.54696866 99.01333215 9.54949032 105.48732194 9.53903532 111.96145916 C9.53281388 115.82318408 9.53192734 119.68470556 9.54518127 123.54641724 C9.55677529 127.17784948 9.54865023 130.80872538 9.52560425 134.44009781 C9.51783199 136.40080256 9.52964274 138.36155462 9.54211426 140.32223511 C9.47746632 147.07107581 9.18489441 151.58173077 5 157 C0.68266618 159.9741633 -2.81076076 160.6486549 -8 160 C-12.98149846 157.50925077 -14.87694171 155.06862512 -17 150 C-17.38590336 147.06359959 -17.38590336 147.06359959 -17.40113831 143.93470764 C-17.41393326 142.7417659 -17.42672821 141.54882416 -17.43991089 140.31973267 C-17.43855133 139.02449677 -17.43719177 137.72926086 -17.43579102 136.39477539 C-17.44477517 135.00624278 -17.45498493 133.61771765 -17.46632385 132.22920227 C-17.49275792 128.46883658 -17.4998544 124.70867584 -17.50177121 120.94822621 C-17.50390719 118.59661635 -17.51031849 116.24505821 -17.51826286 113.89346123 C-17.54599202 105.68325378 -17.55827113 97.47319218 -17.5559082 89.26293945 C-17.55410538 81.61917939 -17.58577693 73.97605415 -17.63313919 66.33245474 C-17.67240369 59.76069857 -17.68845839 53.18914963 -17.68654197 46.61727709 C-17.68577826 42.69613733 -17.69426175 38.77556238 -17.72607613 34.85453987 C-17.75518678 31.1663385 -17.75531415 27.47923939 -17.73352623 23.79099846 C-17.72890948 21.79920978 -17.75388304 19.80742071 -17.77984619 17.8157959 C-17.6768249 8.02605283 -17.6768249 8.02605283 -14.07945251 3.7040863 C-9.76626089 -0.50318954 -5.82840015 -0.53629376 0 0 Z " fill="#9B24BB" transform="translate(507,521)"/>
<path d="M0 0 C4.57681459 1.83072584 6.7481855 4.66317208 9 9 C9.46106399 15.29023013 8.24842875 21.31427021 7.1875 27.5 C5.800766 35.83932508 4.54085675 44.17300519 3.5 52.5625 C2.38499905 61.47483379 0.99137021 70.31607369 -0.51953125 79.16918945 C-2.20542663 89.08749856 -3.6184855 99.03549455 -5 109 C-6.29541079 118.33910215 -7.62303765 127.6725642 -9 137 C-9.12874512 137.89879883 -9.25749023 138.79759766 -9.39013672 139.72363281 C-9.71717815 141.96581812 -10.07077863 144.20151832 -10.4375 146.4375 C-10.62183594 147.61183594 -10.80617188 148.78617188 -10.99609375 149.99609375 C-12.41750647 154.24927034 -14.98226474 156.99113237 -19 159 C-23.82911 159.52137294 -27.74166846 159.73402673 -32 157.25 C-35.74486314 153.03702896 -36.27498124 150.00826912 -36.25 144.375 C-36.25515625 143.22773437 -36.2603125 142.08046875 -36.265625 140.8984375 C-36.00545798 137.0801039 -35.35115056 133.58827637 -34.55712891 129.85644531 C-33.44936382 124.17684344 -32.79887806 118.42482335 -32.0625 112.6875 C-31.71003011 109.98936 -31.35489562 107.29157186 -31 104.59375 C-30.82855469 103.28664063 -30.65710938 101.97953125 -30.48046875 100.6328125 C-28.73174008 87.41071766 -26.75072832 74.2211848 -24.77047729 61.03213501 C-24.55159728 59.57307536 -24.33341651 58.11391061 -24.11599731 56.65463257 C-22.17134212 43.62161789 -22.17134212 43.62161789 -20.93359375 37.77734375 C-19.54133619 31.11772333 -18.96865491 24.33634744 -18.3203125 17.5703125 C-17.51717803 10.36035536 -16.17293381 6.52548201 -11.3125 1.125 C-7.61086626 -0.67579479 -4.03326478 -0.52042126 0 0 Z " fill="#9A20BC" transform="translate(607,521)"/>
<path d="M0 0 C4.41771738 1.76708695 6.99188132 4.74612183 9 9 C9.83749194 12.5314059 10.19925778 16.08017019 10.5625 19.6875 C10.80123327 21.7593637 11.04215033 23.83097684 11.28515625 25.90234375 C11.40262207 26.93214355 11.52008789 27.96194336 11.64111328 29.02294922 C12.15471978 33.28343737 12.81016444 37.51499008 13.5 41.75 C13.62383057 42.51868408 13.74766113 43.28736816 13.87524414 44.0793457 C14.12407105 45.61915468 14.37398089 47.15878906 14.625 48.69824219 C16.29726497 58.96263942 17.91009785 69.23342593 19.36328125 79.53125 C20.34263902 86.43469552 21.33977494 93.3351756 22.35922241 100.2328186 C22.98316416 104.45954588 23.60035328 108.68724807 24.21704102 112.91503906 C24.53336235 115.0733125 24.85241847 117.23118671 25.17407227 119.38867188 C25.64816305 122.57318487 26.11210672 125.75904199 26.57421875 128.9453125 C26.71792404 129.8944754 26.86162933 130.84363831 27.00968933 131.82156372 C29.33944774 148.11503564 29.33944774 148.11503564 26.375 154.5 C22.90930314 158.14810196 19.94010161 159.76243654 14.9375 160.375 C10.25463038 159.77718686 7.93123502 158.12989849 4.94921875 154.51171875 C2.24269444 150.31141583 1.95552518 145.81528069 1.4375 140.9375 C1.22950567 139.17558674 1.01977551 137.41387781 0.80859375 135.65234375 C0.6897583 134.64131592 0.57092285 133.63028809 0.44848633 132.58862305 C-0.44902874 125.40703681 -1.51618505 118.24837862 -2.55361938 111.08590698 C-3.02452515 107.83045334 -3.49240183 104.57457448 -3.9597168 101.31860352 C-4.81425076 95.36738204 -5.67327986 89.41682112 -6.53442383 83.46655273 C-6.88929918 81.01097281 -7.24312405 78.55524086 -7.59594727 76.09936523 C-8.11477448 72.48904343 -8.63711169 68.87924418 -9.16015625 65.26953125 C-9.31541275 64.18396439 -9.47066925 63.09839752 -9.63063049 61.97993469 C-10.4528307 56.33237904 -11.41076926 50.74582535 -12.56584167 45.15696716 C-13.49994434 40.5161975 -14.03595367 35.81933859 -14.625 31.125 C-14.7590625 30.12597656 -14.893125 29.12695312 -15.03125 28.09765625 C-17.39495462 9.40509418 -17.39495462 9.40509418 -14.1875 3.875 C-9.36758005 -0.25635995 -6.1431774 -0.68257527 0 0 Z " fill="#9A22BC" transform="translate(407,521)"/>
<path d="M0 0 C2.75329021 1.79562405 4.52627461 3.05254922 6 6 C6.41204834 10.63554388 5.87454146 13.30416098 3 17 C-0.20528701 19.32106991 -3.12159743 19.55405751 -7 19 C-10.56719805 15.98769943 -12.79134449 13.87789961 -13.3125 9.1875 C-12.92835642 5.2692355 -11.70743683 3.78706733 -9 1 C-5.89951072 -0.55024464 -3.42105782 -0.28992015 0 0 Z " fill="#FAF5FB" transform="translate(505,437)"/>
<path d="M0 0 C0.33 0 0.66 0 1 0 C1.95627638 4.45370678 1.90623315 7.90817745 1.0625 12.375 C0.86785156 13.43460938 0.67320312 14.49421875 0.47265625 15.5859375 C0.31667969 16.38257813 0.16070313 17.17921875 0 18 C-0.66 17.67 -1.32 17.34 -2 17 C-1.34 11.39 -0.68 5.78 0 0 Z " fill="#A940C4" transform="translate(576,625)"/>
<path d="M0 0 C0.5775 0.226875 1.155 0.45375 1.75 0.6875 C0.6053125 1.3371875 0.6053125 1.3371875 -0.5625 2 C-3.21286253 3.52502358 -3.21286253 3.52502358 -4.9375 5.375 C-5.370625 5.808125 -5.80375 6.24125 -6.25 6.6875 C-6.91 6.6875 -7.57 6.6875 -8.25 6.6875 C-6.65594781 2.8352072 -4.57967475 -0.63606594 0 0 Z " fill="#A63AC1" transform="translate(400.25,521.3125)"/>
<path d="M0 0 C0.66 1.32 1.32 2.64 2 4 C0.75 6.75 0.75 6.75 -1 9 C-1.66 9 -2.32 9 -3 9 C-2.01 6.03 -1.02 3.06 0 0 Z " fill="#9F34BD" transform="translate(518,352)"/>
<path d="M0 0 C0.66 0 1.32 0 2 0 C1.74438677 2.3431213 1.40729228 4.67843403 1 7 C0.01 7.495 0.01 7.495 -1 8 C-0.67 5.36 -0.34 2.72 0 0 Z " fill="#A537BE" transform="translate(648,659)"/>
<path d="M0 0 C0.66 0.66 1.32 1.32 2 2 C1.625 5.625 1.625 5.625 1 9 C-0.61949011 6.42786866 -1.04408751 5.32330841 -0.625 2.25 C-0.41875 1.5075 -0.2125 0.765 0 0 Z " fill="#9D30B9" transform="translate(286,505)"/>
</svg>
